<svg width="1280" height="832" viewBox="0 0 1280 832" fill="none" xmlns="http://www.w3.org/2000/svg">
<rect width="1280" height="832" fill="#FF9E01"/>
<rect y="385" width="1280" height="23" fill="#FD2272"/>
<rect y="425" width="1280" height="23" fill="#3D7E71"/>
<rect y="465" width="1280" height="23" fill="#00BEC2"/>
<rect y="505" width="1280" height="23" fill="#FFD33C"/>
<mask id="path-5-outside-1_73_663" maskUnits="userSpaceOnUse" x="132" y="140" width="1020" height="94" fill="black">
<rect fill="white" x="132" y="140" width="1020" height="94"/>
<path d="M133 141.768H214.28C221.789 141.768 227.848 143.944 232.456 148.296C237.064 152.563 239.368 158.365 239.368 165.704C239.368 170.056 238.301 174.109 236.168 177.864C234.035 181.619 231.091 184.605 227.336 186.824C223.581 189.043 219.315 190.152 214.536 190.152L175.496 190.28V231.368H133V141.768ZM179.976 182.856C183.048 182.856 185.864 182.131 188.424 180.68C191.069 179.144 193.117 177.096 194.568 174.536C196.104 171.891 196.872 169.075 196.872 166.088C196.872 163.016 196.104 160.2 194.568 157.64C193.117 154.995 191.069 152.904 188.424 151.368C185.864 149.832 183.048 149.064 179.976 149.064H175.496V182.856H179.976Z"/>
<path d="M288.633 232.008C273.188 232.008 262.137 229.747 255.481 225.224C248.91 220.701 245.625 213.789 245.625 204.488V141.768H294.521V204.488C294.521 210.547 295.844 214.984 298.489 217.8C301.22 220.531 304.804 221.896 309.241 221.896C319.14 221.896 324.089 216.093 324.089 204.488V141.768H331.641V204.488C331.641 211.741 330.105 217.373 327.033 221.384C323.961 225.309 319.353 228.083 313.209 229.704C307.065 231.24 298.873 232.008 288.633 232.008Z"/>
<path d="M338.75 141.768H380.478V231.368H338.75V141.768Z"/>
<path d="M455.334 173.896C465.489 176.627 473.083 180.253 478.118 184.776C483.153 189.213 485.67 195.016 485.67 202.184C485.67 207.901 483.878 213.021 480.294 217.544C476.71 222.067 471.419 225.608 464.422 228.168C457.51 230.728 449.105 232.008 439.206 232.008C427.515 232.008 417.19 230.515 408.23 227.528C399.355 224.456 392.401 220.744 387.366 216.392L391.59 210.632C396.027 214.131 401.617 217.117 408.358 219.592C415.099 222.067 422.353 223.304 430.118 223.304C435.153 223.304 438.95 222.579 441.51 221.128C444.155 219.677 445.478 217.629 445.478 214.984C445.478 210.376 440.913 206.792 431.782 204.232L415.142 199.368C406.097 196.637 399.099 192.84 394.15 187.976C389.286 183.112 386.854 177.352 386.854 170.696C386.854 165.149 388.603 160.115 392.102 155.592C395.601 151.069 400.678 147.528 407.334 144.968C414.075 142.323 422.139 141 431.526 141C440.486 141 448.721 142.024 456.23 144.072C463.825 146.12 470.011 148.595 474.79 151.496L470.566 157.384C466.555 155.08 461.734 153.117 456.102 151.496C450.555 149.875 444.71 149.064 438.566 149.064C433.19 149.064 429.051 149.917 426.15 151.624C423.334 153.245 421.926 155.507 421.926 158.408C421.926 160.627 422.993 162.589 425.126 164.296C427.259 165.917 431.313 167.539 437.286 169.16L455.334 173.896Z"/>
<path d="M556.959 173.896C567.114 176.627 574.708 180.253 579.743 184.776C584.778 189.213 587.295 195.016 587.295 202.184C587.295 207.901 585.503 213.021 581.919 217.544C578.335 222.067 573.044 225.608 566.047 228.168C559.135 230.728 550.73 232.008 540.831 232.008C529.14 232.008 518.815 230.515 509.855 227.528C500.98 224.456 494.026 220.744 488.991 216.392L493.215 210.632C497.652 214.131 503.242 217.117 509.983 219.592C516.724 222.067 523.978 223.304 531.743 223.304C536.778 223.304 540.575 222.579 543.135 221.128C545.78 219.677 547.103 217.629 547.103 214.984C547.103 210.376 542.538 206.792 533.407 204.232L516.767 199.368C507.722 196.637 500.724 192.84 495.775 187.976C490.911 183.112 488.479 177.352 488.479 170.696C488.479 165.149 490.228 160.115 493.727 155.592C497.226 151.069 502.303 147.528 508.959 144.968C515.7 142.323 523.764 141 533.151 141C542.111 141 550.346 142.024 557.855 144.072C565.45 146.12 571.636 148.595 576.415 151.496L572.191 157.384C568.18 155.08 563.359 153.117 557.727 151.496C552.18 149.875 546.335 149.064 540.191 149.064C534.815 149.064 530.676 149.917 527.775 151.624C524.959 153.245 523.551 155.507 523.551 158.408C523.551 160.627 524.618 162.589 526.751 164.296C528.884 165.917 532.938 167.539 538.911 169.16L556.959 173.896Z"/>
<path d="M619.887 141.768H657.263L696.943 231.368H648.559L635.119 201.672H606.959L595.439 231.368H586.095L619.887 141.768ZM631.535 193.864L619.887 167.88L609.775 193.864H631.535Z"/>
<path d="M702 141.768H739.632L777.008 186.568V141.768H784.688V231.368H754.608L709.808 171.72V231.368H702V141.768Z"/>
<path d="M857.539 223.048C863.939 223.048 869.016 220.445 872.771 215.24C876.526 210.035 878.958 203.72 880.067 196.296H888.003C886.808 205.512 883.779 213.363 878.915 219.848C876.184 223.432 873.07 226.12 869.571 227.912C866.158 229.619 862.36 230.728 858.179 231.24C854.083 231.752 848.707 232.008 842.051 232.008C832.664 232.008 825.027 231.112 819.139 229.32C813.336 227.443 808.344 224.413 804.163 220.232C795.971 212.04 791.875 200.776 791.875 186.44C791.875 171.336 795.544 160.115 802.883 152.776C807.662 147.997 812.995 144.84 818.883 143.304C824.771 141.768 832.494 141 842.051 141C850.84 141 857.966 141.64 863.427 142.92C868.974 144.115 873.496 146.717 876.995 150.728C879.896 154.056 882.158 158.067 883.779 162.76C885.4 167.453 886.339 172.104 886.595 176.712H879.299C878.958 172.872 878.019 168.947 876.483 164.936C875.032 160.84 872.728 157.341 869.571 154.44C866.414 151.453 862.403 149.96 857.539 149.96C852.931 149.96 849.219 151.965 846.403 155.976C843.928 159.133 842.051 163.784 840.771 169.928C839.832 174.621 839.363 180.125 839.363 186.44C839.363 196.424 840.558 204.488 842.947 210.632C846.019 218.909 850.883 223.048 857.539 223.048Z"/>
<path d="M894.25 141.768H987.306V149.32H939.306V182.472H962.858V190.152H939.306V223.688H987.306V231.368H894.25V141.768Z"/>
<path d="M1088.67 213.32H1047.46L1100.96 141.768H1131.3V205.64H1150.11V213.32H1131.3V231.368H1088.67V213.32ZM1088.67 205.64V172.616L1064.35 205.64H1088.67Z"/>
</mask>
<path d="M133 141.768H214.28C221.789 141.768 227.848 143.944 232.456 148.296C237.064 152.563 239.368 158.365 239.368 165.704C239.368 170.056 238.301 174.109 236.168 177.864C234.035 181.619 231.091 184.605 227.336 186.824C223.581 189.043 219.315 190.152 214.536 190.152L175.496 190.28V231.368H133V141.768ZM179.976 182.856C183.048 182.856 185.864 182.131 188.424 180.68C191.069 179.144 193.117 177.096 194.568 174.536C196.104 171.891 196.872 169.075 196.872 166.088C196.872 163.016 196.104 160.2 194.568 157.64C193.117 154.995 191.069 152.904 188.424 151.368C185.864 149.832 183.048 149.064 179.976 149.064H175.496V182.856H179.976Z" fill="black"/>
<path d="M288.633 232.008C273.188 232.008 262.137 229.747 255.481 225.224C248.91 220.701 245.625 213.789 245.625 204.488V141.768H294.521V204.488C294.521 210.547 295.844 214.984 298.489 217.8C301.22 220.531 304.804 221.896 309.241 221.896C319.14 221.896 324.089 216.093 324.089 204.488V141.768H331.641V204.488C331.641 211.741 330.105 217.373 327.033 221.384C323.961 225.309 319.353 228.083 313.209 229.704C307.065 231.24 298.873 232.008 288.633 232.008Z" fill="black"/>
<path d="M338.75 141.768H380.478V231.368H338.75V141.768Z" fill="black"/>
<path d="M455.334 173.896C465.489 176.627 473.083 180.253 478.118 184.776C483.153 189.213 485.67 195.016 485.67 202.184C485.67 207.901 483.878 213.021 480.294 217.544C476.71 222.067 471.419 225.608 464.422 228.168C457.51 230.728 449.105 232.008 439.206 232.008C427.515 232.008 417.19 230.515 408.23 227.528C399.355 224.456 392.401 220.744 387.366 216.392L391.59 210.632C396.027 214.131 401.617 217.117 408.358 219.592C415.099 222.067 422.353 223.304 430.118 223.304C435.153 223.304 438.95 222.579 441.51 221.128C444.155 219.677 445.478 217.629 445.478 214.984C445.478 210.376 440.913 206.792 431.782 204.232L415.142 199.368C406.097 196.637 399.099 192.84 394.15 187.976C389.286 183.112 386.854 177.352 386.854 170.696C386.854 165.149 388.603 160.115 392.102 155.592C395.601 151.069 400.678 147.528 407.334 144.968C414.075 142.323 422.139 141 431.526 141C440.486 141 448.721 142.024 456.23 144.072C463.825 146.12 470.011 148.595 474.79 151.496L470.566 157.384C466.555 155.08 461.734 153.117 456.102 151.496C450.555 149.875 444.71 149.064 438.566 149.064C433.19 149.064 429.051 149.917 426.15 151.624C423.334 153.245 421.926 155.507 421.926 158.408C421.926 160.627 422.993 162.589 425.126 164.296C427.259 165.917 431.313 167.539 437.286 169.16L455.334 173.896Z" fill="black"/>
<path d="M556.959 173.896C567.114 176.627 574.708 180.253 579.743 184.776C584.778 189.213 587.295 195.016 587.295 202.184C587.295 207.901 585.503 213.021 581.919 217.544C578.335 222.067 573.044 225.608 566.047 228.168C559.135 230.728 550.73 232.008 540.831 232.008C529.14 232.008 518.815 230.515 509.855 227.528C500.98 224.456 494.026 220.744 488.991 216.392L493.215 210.632C497.652 214.131 503.242 217.117 509.983 219.592C516.724 222.067 523.978 223.304 531.743 223.304C536.778 223.304 540.575 222.579 543.135 221.128C545.78 219.677 547.103 217.629 547.103 214.984C547.103 210.376 542.538 206.792 533.407 204.232L516.767 199.368C507.722 196.637 500.724 192.84 495.775 187.976C490.911 183.112 488.479 177.352 488.479 170.696C488.479 165.149 490.228 160.115 493.727 155.592C497.226 151.069 502.303 147.528 508.959 144.968C515.7 142.323 523.764 141 533.151 141C542.111 141 550.346 142.024 557.855 144.072C565.45 146.12 571.636 148.595 576.415 151.496L572.191 157.384C568.18 155.08 563.359 153.117 557.727 151.496C552.18 149.875 546.335 149.064 540.191 149.064C534.815 149.064 530.676 149.917 527.775 151.624C524.959 153.245 523.551 155.507 523.551 158.408C523.551 160.627 524.618 162.589 526.751 164.296C528.884 165.917 532.938 167.539 538.911 169.16L556.959 173.896Z" fill="black"/>
<path d="M619.887 141.768H657.263L696.943 231.368H648.559L635.119 201.672H606.959L595.439 231.368H586.095L619.887 141.768ZM631.535 193.864L619.887 167.88L609.775 193.864H631.535Z" fill="black"/>
<path d="M702 141.768H739.632L777.008 186.568V141.768H784.688V231.368H754.608L709.808 171.72V231.368H702V141.768Z" fill="black"/>
<path d="M857.539 223.048C863.939 223.048 869.016 220.445 872.771 215.24C876.526 210.035 878.958 203.72 880.067 196.296H888.003C886.808 205.512 883.779 213.363 878.915 219.848C876.184 223.432 873.07 226.12 869.571 227.912C866.158 229.619 862.36 230.728 858.179 231.24C854.083 231.752 848.707 232.008 842.051 232.008C832.664 232.008 825.027 231.112 819.139 229.32C813.336 227.443 808.344 224.413 804.163 220.232C795.971 212.04 791.875 200.776 791.875 186.44C791.875 171.336 795.544 160.115 802.883 152.776C807.662 147.997 812.995 144.84 818.883 143.304C824.771 141.768 832.494 141 842.051 141C850.84 141 857.966 141.64 863.427 142.92C868.974 144.115 873.496 146.717 876.995 150.728C879.896 154.056 882.158 158.067 883.779 162.76C885.4 167.453 886.339 172.104 886.595 176.712H879.299C878.958 172.872 878.019 168.947 876.483 164.936C875.032 160.84 872.728 157.341 869.571 154.44C866.414 151.453 862.403 149.96 857.539 149.96C852.931 149.96 849.219 151.965 846.403 155.976C843.928 159.133 842.051 163.784 840.771 169.928C839.832 174.621 839.363 180.125 839.363 186.44C839.363 196.424 840.558 204.488 842.947 210.632C846.019 218.909 850.883 223.048 857.539 223.048Z" fill="black"/>
<path d="M894.25 141.768H987.306V149.32H939.306V182.472H962.858V190.152H939.306V223.688H987.306V231.368H894.25V141.768Z" fill="black"/>
<path d="M1088.67 213.32H1047.46L1100.96 141.768H1131.3V205.64H1150.11V213.32H1131.3V231.368H1088.67V213.32ZM1088.67 205.64V172.616L1064.35 205.64H1088.67Z" fill="black"/>
<path d="M133 141.768H214.28C221.789 141.768 227.848 143.944 232.456 148.296C237.064 152.563 239.368 158.365 239.368 165.704C239.368 170.056 238.301 174.109 236.168 177.864C234.035 181.619 231.091 184.605 227.336 186.824C223.581 189.043 219.315 190.152 214.536 190.152L175.496 190.28V231.368H133V141.768ZM179.976 182.856C183.048 182.856 185.864 182.131 188.424 180.68C191.069 179.144 193.117 177.096 194.568 174.536C196.104 171.891 196.872 169.075 196.872 166.088C196.872 163.016 196.104 160.2 194.568 157.64C193.117 154.995 191.069 152.904 188.424 151.368C185.864 149.832 183.048 149.064 179.976 149.064H175.496V182.856H179.976Z" stroke="black" stroke-width="2" mask="url(#path-5-outside-1_73_663)"/>
<path d="M288.633 232.008C273.188 232.008 262.137 229.747 255.481 225.224C248.91 220.701 245.625 213.789 245.625 204.488V141.768H294.521V204.488C294.521 210.547 295.844 214.984 298.489 217.8C301.22 220.531 304.804 221.896 309.241 221.896C319.14 221.896 324.089 216.093 324.089 204.488V141.768H331.641V204.488C331.641 211.741 330.105 217.373 327.033 221.384C323.961 225.309 319.353 228.083 313.209 229.704C307.065 231.24 298.873 232.008 288.633 232.008Z" stroke="black" stroke-width="2" mask="url(#path-5-outside-1_73_663)"/>
<path d="M338.75 141.768H380.478V231.368H338.75V141.768Z" stroke="black" stroke-width="2" mask="url(#path-5-outside-1_73_663)"/>
<path d="M455.334 173.896C465.489 176.627 473.083 180.253 478.118 184.776C483.153 189.213 485.67 195.016 485.67 202.184C485.67 207.901 483.878 213.021 480.294 217.544C476.71 222.067 471.419 225.608 464.422 228.168C457.51 230.728 449.105 232.008 439.206 232.008C427.515 232.008 417.19 230.515 408.23 227.528C399.355 224.456 392.401 220.744 387.366 216.392L391.59 210.632C396.027 214.131 401.617 217.117 408.358 219.592C415.099 222.067 422.353 223.304 430.118 223.304C435.153 223.304 438.95 222.579 441.51 221.128C444.155 219.677 445.478 217.629 445.478 214.984C445.478 210.376 440.913 206.792 431.782 204.232L415.142 199.368C406.097 196.637 399.099 192.84 394.15 187.976C389.286 183.112 386.854 177.352 386.854 170.696C386.854 165.149 388.603 160.115 392.102 155.592C395.601 151.069 400.678 147.528 407.334 144.968C414.075 142.323 422.139 141 431.526 141C440.486 141 448.721 142.024 456.23 144.072C463.825 146.12 470.011 148.595 474.79 151.496L470.566 157.384C466.555 155.08 461.734 153.117 456.102 151.496C450.555 149.875 444.71 149.064 438.566 149.064C433.19 149.064 429.051 149.917 426.15 151.624C423.334 153.245 421.926 155.507 421.926 158.408C421.926 160.627 422.993 162.589 425.126 164.296C427.259 165.917 431.313 167.539 437.286 169.16L455.334 173.896Z" stroke="black" stroke-width="2" mask="url(#path-5-outside-1_73_663)"/>
<path d="M556.959 173.896C567.114 176.627 574.708 180.253 579.743 184.776C584.778 189.213 587.295 195.016 587.295 202.184C587.295 207.901 585.503 213.021 581.919 217.544C578.335 222.067 573.044 225.608 566.047 228.168C559.135 230.728 550.73 232.008 540.831 232.008C529.14 232.008 518.815 230.515 509.855 227.528C500.98 224.456 494.026 220.744 488.991 216.392L493.215 210.632C497.652 214.131 503.242 217.117 509.983 219.592C516.724 222.067 523.978 223.304 531.743 223.304C536.778 223.304 540.575 222.579 543.135 221.128C545.78 219.677 547.103 217.629 547.103 214.984C547.103 210.376 542.538 206.792 533.407 204.232L516.767 199.368C507.722 196.637 500.724 192.84 495.775 187.976C490.911 183.112 488.479 177.352 488.479 170.696C488.479 165.149 490.228 160.115 493.727 155.592C497.226 151.069 502.303 147.528 508.959 144.968C515.7 142.323 523.764 141 533.151 141C542.111 141 550.346 142.024 557.855 144.072C565.45 146.12 571.636 148.595 576.415 151.496L572.191 157.384C568.18 155.08 563.359 153.117 557.727 151.496C552.18 149.875 546.335 149.064 540.191 149.064C534.815 149.064 530.676 149.917 527.775 151.624C524.959 153.245 523.551 155.507 523.551 158.408C523.551 160.627 524.618 162.589 526.751 164.296C528.884 165.917 532.938 167.539 538.911 169.16L556.959 173.896Z" stroke="black" stroke-width="2" mask="url(#path-5-outside-1_73_663)"/>
<path d="M619.887 141.768H657.263L696.943 231.368H648.559L635.119 201.672H606.959L595.439 231.368H586.095L619.887 141.768ZM631.535 193.864L619.887 167.88L609.775 193.864H631.535Z" stroke="black" stroke-width="2" mask="url(#path-5-outside-1_73_663)"/>
<path d="M702 141.768H739.632L777.008 186.568V141.768H784.688V231.368H754.608L709.808 171.72V231.368H702V141.768Z" stroke="black" stroke-width="2" mask="url(#path-5-outside-1_73_663)"/>
<path d="M857.539 223.048C863.939 223.048 869.016 220.445 872.771 215.24C876.526 210.035 878.958 203.72 880.067 196.296H888.003C886.808 205.512 883.779 213.363 878.915 219.848C876.184 223.432 873.07 226.12 869.571 227.912C866.158 229.619 862.36 230.728 858.179 231.24C854.083 231.752 848.707 232.008 842.051 232.008C832.664 232.008 825.027 231.112 819.139 229.32C813.336 227.443 808.344 224.413 804.163 220.232C795.971 212.04 791.875 200.776 791.875 186.44C791.875 171.336 795.544 160.115 802.883 152.776C807.662 147.997 812.995 144.84 818.883 143.304C824.771 141.768 832.494 141 842.051 141C850.84 141 857.966 141.64 863.427 142.92C868.974 144.115 873.496 146.717 876.995 150.728C879.896 154.056 882.158 158.067 883.779 162.76C885.4 167.453 886.339 172.104 886.595 176.712H879.299C878.958 172.872 878.019 168.947 876.483 164.936C875.032 160.84 872.728 157.341 869.571 154.44C866.414 151.453 862.403 149.96 857.539 149.96C852.931 149.96 849.219 151.965 846.403 155.976C843.928 159.133 842.051 163.784 840.771 169.928C839.832 174.621 839.363 180.125 839.363 186.44C839.363 196.424 840.558 204.488 842.947 210.632C846.019 218.909 850.883 223.048 857.539 223.048Z" stroke="black" stroke-width="2" mask="url(#path-5-outside-1_73_663)"/>
<path d="M894.25 141.768H987.306V149.32H939.306V182.472H962.858V190.152H939.306V223.688H987.306V231.368H894.25V141.768Z" stroke="black" stroke-width="2" mask="url(#path-5-outside-1_73_663)"/>
<path d="M1088.67 213.32H1047.46L1100.96 141.768H1131.3V205.64H1150.11V213.32H1131.3V231.368H1088.67V213.32ZM1088.67 205.64V172.616L1064.35 205.64H1088.67Z" stroke="black" stroke-width="2" mask="url(#path-5-outside-1_73_663)"/>
<mask id="path-6-outside-2_73_663" maskUnits="userSpaceOnUse" x="127" y="133" width="1022" height="96" fill="black">
<rect fill="white" x="127" y="133" width="1022" height="96"/>
<path d="M129 135.768H210.28C217.789 135.768 223.848 137.944 228.456 142.296C233.064 146.563 235.368 152.365 235.368 159.704C235.368 164.056 234.301 168.109 232.168 171.864C230.035 175.619 227.091 178.605 223.336 180.824C219.581 183.043 215.315 184.152 210.536 184.152L171.496 184.28V225.368H129V135.768ZM175.976 176.856C179.048 176.856 181.864 176.131 184.424 174.68C187.069 173.144 189.117 171.096 190.568 168.536C192.104 165.891 192.872 163.075 192.872 160.088C192.872 157.016 192.104 154.2 190.568 151.64C189.117 148.995 187.069 146.904 184.424 145.368C181.864 143.832 179.048 143.064 175.976 143.064H171.496V176.856H175.976Z"/>
<path d="M284.633 226.008C269.188 226.008 258.137 223.747 251.481 219.224C244.91 214.701 241.625 207.789 241.625 198.488V135.768H290.521V198.488C290.521 204.547 291.844 208.984 294.489 211.8C297.22 214.531 300.804 215.896 305.241 215.896C315.14 215.896 320.089 210.093 320.089 198.488V135.768H327.641V198.488C327.641 205.741 326.105 211.373 323.033 215.384C319.961 219.309 315.353 222.083 309.209 223.704C303.065 225.24 294.873 226.008 284.633 226.008Z"/>
<path d="M334.75 135.768H376.478V225.368H334.75V135.768Z"/>
<path d="M451.334 167.896C461.489 170.627 469.083 174.253 474.118 178.776C479.153 183.213 481.67 189.016 481.67 196.184C481.67 201.901 479.878 207.021 476.294 211.544C472.71 216.067 467.419 219.608 460.422 222.168C453.51 224.728 445.105 226.008 435.206 226.008C423.515 226.008 413.19 224.515 404.23 221.528C395.355 218.456 388.401 214.744 383.366 210.392L387.59 204.632C392.027 208.131 397.617 211.117 404.358 213.592C411.099 216.067 418.353 217.304 426.118 217.304C431.153 217.304 434.95 216.579 437.51 215.128C440.155 213.677 441.478 211.629 441.478 208.984C441.478 204.376 436.913 200.792 427.782 198.232L411.142 193.368C402.097 190.637 395.099 186.84 390.15 181.976C385.286 177.112 382.854 171.352 382.854 164.696C382.854 159.149 384.603 154.115 388.102 149.592C391.601 145.069 396.678 141.528 403.334 138.968C410.075 136.323 418.139 135 427.526 135C436.486 135 444.721 136.024 452.23 138.072C459.825 140.12 466.011 142.595 470.79 145.496L466.566 151.384C462.555 149.08 457.734 147.117 452.102 145.496C446.555 143.875 440.71 143.064 434.566 143.064C429.19 143.064 425.051 143.917 422.15 145.624C419.334 147.245 417.926 149.507 417.926 152.408C417.926 154.627 418.993 156.589 421.126 158.296C423.259 159.917 427.313 161.539 433.286 163.16L451.334 167.896Z"/>
<path d="M552.959 167.896C563.114 170.627 570.708 174.253 575.743 178.776C580.778 183.213 583.295 189.016 583.295 196.184C583.295 201.901 581.503 207.021 577.919 211.544C574.335 216.067 569.044 219.608 562.047 222.168C555.135 224.728 546.73 226.008 536.831 226.008C525.14 226.008 514.815 224.515 505.855 221.528C496.98 218.456 490.026 214.744 484.991 210.392L489.215 204.632C493.652 208.131 499.242 211.117 505.983 213.592C512.724 216.067 519.978 217.304 527.743 217.304C532.778 217.304 536.575 216.579 539.135 215.128C541.78 213.677 543.103 211.629 543.103 208.984C543.103 204.376 538.538 200.792 529.407 198.232L512.767 193.368C503.722 190.637 496.724 186.84 491.775 181.976C486.911 177.112 484.479 171.352 484.479 164.696C484.479 159.149 486.228 154.115 489.727 149.592C493.226 145.069 498.303 141.528 504.959 138.968C511.7 136.323 519.764 135 529.151 135C538.111 135 546.346 136.024 553.855 138.072C561.45 140.12 567.636 142.595 572.415 145.496L568.191 151.384C564.18 149.08 559.359 147.117 553.727 145.496C548.18 143.875 542.335 143.064 536.191 143.064C530.815 143.064 526.676 143.917 523.775 145.624C520.959 147.245 519.551 149.507 519.551 152.408C519.551 154.627 520.618 156.589 522.751 158.296C524.884 159.917 528.938 161.539 534.911 163.16L552.959 167.896Z"/>
<path d="M615.887 135.768H653.263L692.943 225.368H644.559L631.119 195.672H602.959L591.439 225.368H582.095L615.887 135.768ZM627.535 187.864L615.887 161.88L605.775 187.864H627.535Z"/>
<path d="M698 135.768H735.632L773.008 180.568V135.768H780.688V225.368H750.608L705.808 165.72V225.368H698V135.768Z"/>
<path d="M853.539 217.048C859.939 217.048 865.016 214.445 868.771 209.24C872.526 204.035 874.958 197.72 876.067 190.296H884.003C882.808 199.512 879.779 207.363 874.915 213.848C872.184 217.432 869.07 220.12 865.571 221.912C862.158 223.619 858.36 224.728 854.179 225.24C850.083 225.752 844.707 226.008 838.051 226.008C828.664 226.008 821.027 225.112 815.139 223.32C809.336 221.443 804.344 218.413 800.163 214.232C791.971 206.04 787.875 194.776 787.875 180.44C787.875 165.336 791.544 154.115 798.883 146.776C803.662 141.997 808.995 138.84 814.883 137.304C820.771 135.768 828.494 135 838.051 135C846.84 135 853.966 135.64 859.427 136.92C864.974 138.115 869.496 140.717 872.995 144.728C875.896 148.056 878.158 152.067 879.779 156.76C881.4 161.453 882.339 166.104 882.595 170.712H875.299C874.958 166.872 874.019 162.947 872.483 158.936C871.032 154.84 868.728 151.341 865.571 148.44C862.414 145.453 858.403 143.96 853.539 143.96C848.931 143.96 845.219 145.965 842.403 149.976C839.928 153.133 838.051 157.784 836.771 163.928C835.832 168.621 835.363 174.125 835.363 180.44C835.363 190.424 836.558 198.488 838.947 204.632C842.019 212.909 846.883 217.048 853.539 217.048Z"/>
<path d="M890.25 135.768H983.306V143.32H935.306V176.472H958.858V184.152H935.306V217.688H983.306V225.368H890.25V135.768Z"/>
<path d="M1084.67 207.32H1043.46L1096.96 135.768H1127.3V199.64H1146.11V207.32H1127.3V225.368H1084.67V207.32ZM1084.67 199.64V166.616L1060.35 199.64H1084.67Z"/>
</mask>
<path d="M129 135.768H210.28C217.789 135.768 223.848 137.944 228.456 142.296C233.064 146.563 235.368 152.365 235.368 159.704C235.368 164.056 234.301 168.109 232.168 171.864C230.035 175.619 227.091 178.605 223.336 180.824C219.581 183.043 215.315 184.152 210.536 184.152L171.496 184.28V225.368H129V135.768ZM175.976 176.856C179.048 176.856 181.864 176.131 184.424 174.68C187.069 173.144 189.117 171.096 190.568 168.536C192.104 165.891 192.872 163.075 192.872 160.088C192.872 157.016 192.104 154.2 190.568 151.64C189.117 148.995 187.069 146.904 184.424 145.368C181.864 143.832 179.048 143.064 175.976 143.064H171.496V176.856H175.976Z" fill="#FBFCDD"/>
<path d="M284.633 226.008C269.188 226.008 258.137 223.747 251.481 219.224C244.91 214.701 241.625 207.789 241.625 198.488V135.768H290.521V198.488C290.521 204.547 291.844 208.984 294.489 211.8C297.22 214.531 300.804 215.896 305.241 215.896C315.14 215.896 320.089 210.093 320.089 198.488V135.768H327.641V198.488C327.641 205.741 326.105 211.373 323.033 215.384C319.961 219.309 315.353 222.083 309.209 223.704C303.065 225.24 294.873 226.008 284.633 226.008Z" fill="#FBFCDD"/>
<path d="M334.75 135.768H376.478V225.368H334.75V135.768Z" fill="#FBFCDD"/>
<path d="M451.334 167.896C461.489 170.627 469.083 174.253 474.118 178.776C479.153 183.213 481.67 189.016 481.67 196.184C481.67 201.901 479.878 207.021 476.294 211.544C472.71 216.067 467.419 219.608 460.422 222.168C453.51 224.728 445.105 226.008 435.206 226.008C423.515 226.008 413.19 224.515 404.23 221.528C395.355 218.456 388.401 214.744 383.366 210.392L387.59 204.632C392.027 208.131 397.617 211.117 404.358 213.592C411.099 216.067 418.353 217.304 426.118 217.304C431.153 217.304 434.95 216.579 437.51 215.128C440.155 213.677 441.478 211.629 441.478 208.984C441.478 204.376 436.913 200.792 427.782 198.232L411.142 193.368C402.097 190.637 395.099 186.84 390.15 181.976C385.286 177.112 382.854 171.352 382.854 164.696C382.854 159.149 384.603 154.115 388.102 149.592C391.601 145.069 396.678 141.528 403.334 138.968C410.075 136.323 418.139 135 427.526 135C436.486 135 444.721 136.024 452.23 138.072C459.825 140.12 466.011 142.595 470.79 145.496L466.566 151.384C462.555 149.08 457.734 147.117 452.102 145.496C446.555 143.875 440.71 143.064 434.566 143.064C429.19 143.064 425.051 143.917 422.15 145.624C419.334 147.245 417.926 149.507 417.926 152.408C417.926 154.627 418.993 156.589 421.126 158.296C423.259 159.917 427.313 161.539 433.286 163.16L451.334 167.896Z" fill="#FBFCDD"/>
<path d="M552.959 167.896C563.114 170.627 570.708 174.253 575.743 178.776C580.778 183.213 583.295 189.016 583.295 196.184C583.295 201.901 581.503 207.021 577.919 211.544C574.335 216.067 569.044 219.608 562.047 222.168C555.135 224.728 546.73 226.008 536.831 226.008C525.14 226.008 514.815 224.515 505.855 221.528C496.98 218.456 490.026 214.744 484.991 210.392L489.215 204.632C493.652 208.131 499.242 211.117 505.983 213.592C512.724 216.067 519.978 217.304 527.743 217.304C532.778 217.304 536.575 216.579 539.135 215.128C541.78 213.677 543.103 211.629 543.103 208.984C543.103 204.376 538.538 200.792 529.407 198.232L512.767 193.368C503.722 190.637 496.724 186.84 491.775 181.976C486.911 177.112 484.479 171.352 484.479 164.696C484.479 159.149 486.228 154.115 489.727 149.592C493.226 145.069 498.303 141.528 504.959 138.968C511.7 136.323 519.764 135 529.151 135C538.111 135 546.346 136.024 553.855 138.072C561.45 140.12 567.636 142.595 572.415 145.496L568.191 151.384C564.18 149.08 559.359 147.117 553.727 145.496C548.18 143.875 542.335 143.064 536.191 143.064C530.815 143.064 526.676 143.917 523.775 145.624C520.959 147.245 519.551 149.507 519.551 152.408C519.551 154.627 520.618 156.589 522.751 158.296C524.884 159.917 528.938 161.539 534.911 163.16L552.959 167.896Z" fill="#FBFCDD"/>
<path d="M615.887 135.768H653.263L692.943 225.368H644.559L631.119 195.672H602.959L591.439 225.368H582.095L615.887 135.768ZM627.535 187.864L615.887 161.88L605.775 187.864H627.535Z" fill="#FBFCDD"/>
<path d="M698 135.768H735.632L773.008 180.568V135.768H780.688V225.368H750.608L705.808 165.72V225.368H698V135.768Z" fill="#FBFCDD"/>
<path d="M853.539 217.048C859.939 217.048 865.016 214.445 868.771 209.24C872.526 204.035 874.958 197.72 876.067 190.296H884.003C882.808 199.512 879.779 207.363 874.915 213.848C872.184 217.432 869.07 220.12 865.571 221.912C862.158 223.619 858.36 224.728 854.179 225.24C850.083 225.752 844.707 226.008 838.051 226.008C828.664 226.008 821.027 225.112 815.139 223.32C809.336 221.443 804.344 218.413 800.163 214.232C791.971 206.04 787.875 194.776 787.875 180.44C787.875 165.336 791.544 154.115 798.883 146.776C803.662 141.997 808.995 138.84 814.883 137.304C820.771 135.768 828.494 135 838.051 135C846.84 135 853.966 135.64 859.427 136.92C864.974 138.115 869.496 140.717 872.995 144.728C875.896 148.056 878.158 152.067 879.779 156.76C881.4 161.453 882.339 166.104 882.595 170.712H875.299C874.958 166.872 874.019 162.947 872.483 158.936C871.032 154.84 868.728 151.341 865.571 148.44C862.414 145.453 858.403 143.96 853.539 143.96C848.931 143.96 845.219 145.965 842.403 149.976C839.928 153.133 838.051 157.784 836.771 163.928C835.832 168.621 835.363 174.125 835.363 180.44C835.363 190.424 836.558 198.488 838.947 204.632C842.019 212.909 846.883 217.048 853.539 217.048Z" fill="#FBFCDD"/>
<path d="M890.25 135.768H983.306V143.32H935.306V176.472H958.858V184.152H935.306V217.688H983.306V225.368H890.25V135.768Z" fill="#FBFCDD"/>
<path d="M1084.67 207.32H1043.46L1096.96 135.768H1127.3V199.64H1146.11V207.32H1127.3V225.368H1084.67V207.32ZM1084.67 199.64V166.616L1060.35 199.64H1084.67Z" fill="#FBFCDD"/>
<path d="M129 135.768H210.28C217.789 135.768 223.848 137.944 228.456 142.296C233.064 146.563 235.368 152.365 235.368 159.704C235.368 164.056 234.301 168.109 232.168 171.864C230.035 175.619 227.091 178.605 223.336 180.824C219.581 183.043 215.315 184.152 210.536 184.152L171.496 184.28V225.368H129V135.768ZM175.976 176.856C179.048 176.856 181.864 176.131 184.424 174.68C187.069 173.144 189.117 171.096 190.568 168.536C192.104 165.891 192.872 163.075 192.872 160.088C192.872 157.016 192.104 154.2 190.568 151.64C189.117 148.995 187.069 146.904 184.424 145.368C181.864 143.832 179.048 143.064 175.976 143.064H171.496V176.856H175.976Z" stroke="black" stroke-width="4" mask="url(#path-6-outside-2_73_663)"/>
<path d="M284.633 226.008C269.188 226.008 258.137 223.747 251.481 219.224C244.91 214.701 241.625 207.789 241.625 198.488V135.768H290.521V198.488C290.521 204.547 291.844 208.984 294.489 211.8C297.22 214.531 300.804 215.896 305.241 215.896C315.14 215.896 320.089 210.093 320.089 198.488V135.768H327.641V198.488C327.641 205.741 326.105 211.373 323.033 215.384C319.961 219.309 315.353 222.083 309.209 223.704C303.065 225.24 294.873 226.008 284.633 226.008Z" stroke="black" stroke-width="4" mask="url(#path-6-outside-2_73_663)"/>
<path d="M334.75 135.768H376.478V225.368H334.75V135.768Z" stroke="black" stroke-width="4" mask="url(#path-6-outside-2_73_663)"/>
<path d="M451.334 167.896C461.489 170.627 469.083 174.253 474.118 178.776C479.153 183.213 481.67 189.016 481.67 196.184C481.67 201.901 479.878 207.021 476.294 211.544C472.71 216.067 467.419 219.608 460.422 222.168C453.51 224.728 445.105 226.008 435.206 226.008C423.515 226.008 413.19 224.515 404.23 221.528C395.355 218.456 388.401 214.744 383.366 210.392L387.59 204.632C392.027 208.131 397.617 211.117 404.358 213.592C411.099 216.067 418.353 217.304 426.118 217.304C431.153 217.304 434.95 216.579 437.51 215.128C440.155 213.677 441.478 211.629 441.478 208.984C441.478 204.376 436.913 200.792 427.782 198.232L411.142 193.368C402.097 190.637 395.099 186.84 390.15 181.976C385.286 177.112 382.854 171.352 382.854 164.696C382.854 159.149 384.603 154.115 388.102 149.592C391.601 145.069 396.678 141.528 403.334 138.968C410.075 136.323 418.139 135 427.526 135C436.486 135 444.721 136.024 452.23 138.072C459.825 140.12 466.011 142.595 470.79 145.496L466.566 151.384C462.555 149.08 457.734 147.117 452.102 145.496C446.555 143.875 440.71 143.064 434.566 143.064C429.19 143.064 425.051 143.917 422.15 145.624C419.334 147.245 417.926 149.507 417.926 152.408C417.926 154.627 418.993 156.589 421.126 158.296C423.259 159.917 427.313 161.539 433.286 163.16L451.334 167.896Z" stroke="black" stroke-width="4" mask="url(#path-6-outside-2_73_663)"/>
<path d="M552.959 167.896C563.114 170.627 570.708 174.253 575.743 178.776C580.778 183.213 583.295 189.016 583.295 196.184C583.295 201.901 581.503 207.021 577.919 211.544C574.335 216.067 569.044 219.608 562.047 222.168C555.135 224.728 546.73 226.008 536.831 226.008C525.14 226.008 514.815 224.515 505.855 221.528C496.98 218.456 490.026 214.744 484.991 210.392L489.215 204.632C493.652 208.131 499.242 211.117 505.983 213.592C512.724 216.067 519.978 217.304 527.743 217.304C532.778 217.304 536.575 216.579 539.135 215.128C541.78 213.677 543.103 211.629 543.103 208.984C543.103 204.376 538.538 200.792 529.407 198.232L512.767 193.368C503.722 190.637 496.724 186.84 491.775 181.976C486.911 177.112 484.479 171.352 484.479 164.696C484.479 159.149 486.228 154.115 489.727 149.592C493.226 145.069 498.303 141.528 504.959 138.968C511.7 136.323 519.764 135 529.151 135C538.111 135 546.346 136.024 553.855 138.072C561.45 140.12 567.636 142.595 572.415 145.496L568.191 151.384C564.18 149.08 559.359 147.117 553.727 145.496C548.18 143.875 542.335 143.064 536.191 143.064C530.815 143.064 526.676 143.917 523.775 145.624C520.959 147.245 519.551 149.507 519.551 152.408C519.551 154.627 520.618 156.589 522.751 158.296C524.884 159.917 528.938 161.539 534.911 163.16L552.959 167.896Z" stroke="black" stroke-width="4" mask="url(#path-6-outside-2_73_663)"/>
<path d="M615.887 135.768H653.263L692.943 225.368H644.559L631.119 195.672H602.959L591.439 225.368H582.095L615.887 135.768ZM627.535 187.864L615.887 161.88L605.775 187.864H627.535Z" stroke="black" stroke-width="4" mask="url(#path-6-outside-2_73_663)"/>
<path d="M698 135.768H735.632L773.008 180.568V135.768H780.688V225.368H750.608L705.808 165.72V225.368H698V135.768Z" stroke="black" stroke-width="4" mask="url(#path-6-outside-2_73_663)"/>
<path d="M853.539 217.048C859.939 217.048 865.016 214.445 868.771 209.24C872.526 204.035 874.958 197.72 876.067 190.296H884.003C882.808 199.512 879.779 207.363 874.915 213.848C872.184 217.432 869.07 220.12 865.571 221.912C862.158 223.619 858.36 224.728 854.179 225.24C850.083 225.752 844.707 226.008 838.051 226.008C828.664 226.008 821.027 225.112 815.139 223.32C809.336 221.443 804.344 218.413 800.163 214.232C791.971 206.04 787.875 194.776 787.875 180.44C787.875 165.336 791.544 154.115 798.883 146.776C803.662 141.997 808.995 138.84 814.883 137.304C820.771 135.768 828.494 135 838.051 135C846.84 135 853.966 135.64 859.427 136.92C864.974 138.115 869.496 140.717 872.995 144.728C875.896 148.056 878.158 152.067 879.779 156.76C881.4 161.453 882.339 166.104 882.595 170.712H875.299C874.958 166.872 874.019 162.947 872.483 158.936C871.032 154.84 868.728 151.341 865.571 148.44C862.414 145.453 858.403 143.96 853.539 143.96C848.931 143.96 845.219 145.965 842.403 149.976C839.928 153.133 838.051 157.784 836.771 163.928C835.832 168.621 835.363 174.125 835.363 180.44C835.363 190.424 836.558 198.488 838.947 204.632C842.019 212.909 846.883 217.048 853.539 217.048Z" stroke="black" stroke-width="4" mask="url(#path-6-outside-2_73_663)"/>
<path d="M890.25 135.768H983.306V143.32H935.306V176.472H958.858V184.152H935.306V217.688H983.306V225.368H890.25V135.768Z" stroke="black" stroke-width="4" mask="url(#path-6-outside-2_73_663)"/>
<path d="M1084.67 207.32H1043.46L1096.96 135.768H1127.3V199.64H1146.11V207.32H1127.3V225.368H1084.67V207.32ZM1084.67 199.64V166.616L1060.35 199.64H1084.67Z" stroke="black" stroke-width="4" mask="url(#path-6-outside-2_73_663)"/>
</svg>
