<svg width="442" height="257" viewBox="0 0 442 257" fill="none" xmlns="http://www.w3.org/2000/svg">
<mask id="mask0_48_348" style="mask-type:luminance" maskUnits="userSpaceOnUse" x="241" y="118" width="33" height="29">
<path d="M273.063 137.413L261.326 146.224C260.412 135.695 251.33 127.189 241.074 127.27L252.81 118.459C263.067 118.377 272.148 126.876 273.063 137.413Z" fill="white"/>
</mask>
<g mask="url(#mask0_48_348)">
<path d="M273.063 137.413L261.326 146.224C260.412 135.695 251.33 127.189 241.074 127.27L252.81 118.459C263.067 118.377 272.148 126.876 273.063 137.413Z" fill="black"/>
</g>
<path d="M252.803 118.459L241.074 127.27L90.8351 128.49L102.572 119.678L252.803 118.459Z" fill="black"/>
<path d="M294.193 380.503L282.457 389.314L261.326 146.224L273.063 137.413L294.193 380.503Z" fill="black"/>
<mask id="mask1_48_348" style="mask-type:luminance" maskUnits="userSpaceOnUse" x="80" y="119" width="23" height="13">
<path d="M80.7051 131.858L92.4416 123.047C95.2307 120.95 98.7114 119.708 102.564 119.678L90.8276 128.49C86.975 128.52 83.4942 129.761 80.7051 131.858Z" fill="white"/>
</mask>
<g mask="url(#mask1_48_348)">
<path d="M102.572 119.678L90.8352 128.49C86.9825 128.52 83.5017 129.761 80.7126 131.858L92.4491 123.047C95.2382 120.95 98.719 119.708 102.572 119.678Z" fill="black"/>
</g>
<mask id="mask2_48_348" style="mask-type:luminance" maskUnits="userSpaceOnUse" x="73" y="123" width="20" height="25">
<path d="M80.7051 131.858L92.4416 123.047C87.808 126.527 85.071 132.356 85.6437 138.93L73.9072 147.741C73.3345 141.168 76.0789 135.338 80.7051 131.858Z" fill="white"/>
</mask>
<g mask="url(#mask2_48_348)">
<path d="M85.6437 138.93L73.9072 147.741C73.3345 141.168 76.0789 135.338 80.7051 131.858L92.4416 123.047C87.808 126.527 85.071 132.356 85.6437 138.93Z" fill="#147477"/>
</g>
<mask id="mask3_48_348" style="mask-type:luminance" maskUnits="userSpaceOnUse" x="72" y="121" width="20" height="27">
<path d="M79.8126 130.669L91.5491 121.857C86.5659 125.597 83.6206 131.873 84.2305 138.937L72.494 147.748C71.8767 140.685 74.8294 134.409 79.8126 130.669Z" fill="white"/>
</mask>
<g mask="url(#mask3_48_348)">
<path d="M84.2305 138.937L72.494 147.748C71.8767 140.685 74.8294 134.409 79.8126 130.669L91.5491 121.857C86.5659 125.597 83.6206 131.873 84.2305 138.937Z" fill="black"/>
</g>
<path d="M106.774 382.012L95.0373 390.831L73.9072 147.741L85.6437 138.93L106.774 382.012Z" fill="#137174"/>
<path d="M105.361 382.027L93.6316 390.838L72.494 147.748L84.2305 138.937L105.361 382.027Z" fill="black"/>
<path d="M252.811 118.459C263.067 118.377 272.148 126.876 273.063 137.413L294.193 380.503C295.108 391.032 287.514 399.672 277.258 399.754L127.019 400.966C116.77 401.048 107.689 392.548 106.774 382.012L85.6436 138.922C84.7288 128.393 92.3226 119.753 102.572 119.671L252.811 118.459Z" fill="#1DB1B7"/>
<path d="M252.684 117.016C263.714 116.927 273.487 126.073 274.469 137.398L295.599 380.488C296.581 391.82 288.414 401.107 277.384 401.196L127.145 402.408C116.115 402.497 106.342 393.352 105.361 382.019L84.2305 138.93C83.2487 127.605 91.4152 118.31 102.445 118.221L252.684 117.009V117.016ZM294.193 380.502L273.063 137.413C272.148 126.884 263.067 118.377 252.811 118.459L102.572 119.671C92.3226 119.753 84.7288 128.393 85.6436 138.922L106.774 382.012C107.689 392.541 116.77 401.047 127.019 400.958L277.258 399.746C287.514 399.664 295.108 391.024 294.193 380.495" fill="black"/>
<mask id="mask4_48_348" style="mask-type:luminance" maskUnits="userSpaceOnUse" x="241" y="136" width="26" height="24">
<path d="M266.339 155.66L261.624 159.006C260.828 148.44 251.844 139.852 241.587 139.852L246.303 136.506C256.559 136.506 265.544 145.101 266.339 155.66Z" fill="white"/>
</mask>
<g mask="url(#mask4_48_348)">
<path d="M266.339 155.66L261.624 159.006C260.828 148.44 251.844 139.852 241.587 139.852L246.303 136.506C256.559 136.506 265.544 145.101 266.339 155.66Z" fill="black"/>
</g>
<path d="M271.531 224.723L266.815 228.069L261.624 159.006L266.339 155.66L271.531 224.723Z" fill="black"/>
<mask id="mask5_48_348" style="mask-type:luminance" maskUnits="userSpaceOnUse" x="259" y="224" width="13" height="21">
<path d="M264.287 240.77L259.571 244.116C264.398 240.695 267.321 234.776 266.815 228.062L271.531 224.716C272.037 231.43 269.114 237.342 264.287 240.77Z" fill="white"/>
</mask>
<g mask="url(#mask5_48_348)">
<path d="M264.287 240.77L259.571 244.116C264.398 240.695 267.321 234.776 266.815 228.062L271.531 224.716C272.037 231.43 269.114 237.342 264.287 240.77Z" fill="black"/>
</g>
<mask id="mask6_48_348" style="mask-type:luminance" maskUnits="userSpaceOnUse" x="249" y="240" width="16" height="8">
<path d="M264.287 240.77L259.571 244.116C256.797 246.079 253.398 247.224 249.664 247.224L254.38 243.878C258.121 243.878 261.52 242.733 264.287 240.77Z" fill="white"/>
</mask>
<g mask="url(#mask6_48_348)">
<path d="M264.287 240.77L259.571 244.116C256.797 246.079 253.398 247.224 249.664 247.224L254.38 243.878C258.121 243.878 261.52 242.733 264.287 240.77Z" fill="#9D8528"/>
</g>
<mask id="mask7_48_348" style="mask-type:luminance" maskUnits="userSpaceOnUse" x="249" y="241" width="17" height="8">
<path d="M265.149 241.982L260.434 245.328C257.452 247.44 253.792 248.674 249.768 248.674L254.484 245.328C258.508 245.328 262.167 244.101 265.149 241.982Z" fill="white"/>
</mask>
<g mask="url(#mask7_48_348)">
<path d="M265.149 241.982L260.434 245.328C257.452 247.44 253.792 248.674 249.768 248.674L254.484 245.328C258.508 245.328 262.167 244.101 265.149 241.982Z" fill="black"/>
</g>
<path d="M246.303 136.506L241.587 139.852H117.171L121.894 136.506H246.303Z" fill="black"/>
<mask id="mask8_48_348" style="mask-type:luminance" maskUnits="userSpaceOnUse" x="107" y="136" width="15" height="7">
<path d="M107.265 142.952L111.98 139.606C114.754 137.643 118.153 136.498 121.887 136.498L117.171 139.844C113.43 139.844 110.031 140.989 107.265 142.952Z" fill="white"/>
</mask>
<g mask="url(#mask8_48_348)">
<path d="M121.894 136.506L117.179 139.852C113.438 139.852 110.039 140.997 107.272 142.96L111.988 139.614C114.762 137.651 118.161 136.506 121.894 136.506Z" fill="black"/>
</g>
<mask id="mask9_48_348" style="mask-type:luminance" maskUnits="userSpaceOnUse" x="99" y="139" width="13" height="21">
<path d="M107.265 142.952L111.98 139.606C107.153 143.027 104.23 148.946 104.736 155.66L100.02 159.006C99.5147 152.292 102.438 146.38 107.265 142.952Z" fill="white"/>
</mask>
<g mask="url(#mask9_48_348)">
<path d="M104.736 155.66L100.02 159.006C99.5147 152.292 102.438 146.38 107.265 142.952L111.98 139.606C107.153 143.027 104.23 148.946 104.736 155.66Z" fill="#9D8528"/>
</g>
<mask id="mask10_48_348" style="mask-type:luminance" maskUnits="userSpaceOnUse" x="98" y="138" width="14" height="22">
<path d="M106.409 141.733L111.125 138.387C105.933 142.067 102.787 148.432 103.33 155.66L98.6147 159.006C98.0718 151.786 101.218 145.421 106.409 141.733Z" fill="white"/>
</mask>
<g mask="url(#mask10_48_348)">
<path d="M103.33 155.66L98.6147 159.006C98.0718 151.786 101.218 145.421 106.409 141.733L111.125 138.387C105.933 142.067 102.787 148.432 103.33 155.66Z" fill="black"/>
</g>
<path d="M254.38 243.878L249.657 247.224H125.249L129.964 243.878H254.38Z" fill="#998227"/>
<path d="M254.484 245.328L249.769 248.674H125.353L130.076 245.328H254.484Z" fill="black"/>
<mask id="mask11_48_348" style="mask-type:luminance" maskUnits="userSpaceOnUse" x="117" y="242" width="13" height="6">
<path d="M125.249 247.224C122.683 247.224 120.199 246.689 117.908 245.714C119.477 244.599 121.054 243.484 122.623 242.368C124.921 243.342 127.406 243.878 129.964 243.878C128.551 244.882 126.662 246.22 125.249 247.224Z" fill="white"/>
</mask>
<g mask="url(#mask11_48_348)">
<path d="M129.964 243.878L125.249 247.224C114.992 247.224 106.008 238.628 105.212 228.069L109.927 224.723C110.723 235.29 119.708 243.878 129.964 243.878Z" fill="#9D8528"/>
</g>
<path d="M109.927 224.723L105.212 228.069L100.02 159.006L104.736 155.66L109.927 224.723Z" fill="#998227"/>
<path d="M108.522 224.723L103.806 228.069L98.6147 159.006L103.33 155.66L108.522 224.723Z" fill="black"/>
<mask id="mask12_48_348" style="mask-type:luminance" maskUnits="userSpaceOnUse" x="115" y="240" width="8" height="6">
<path d="M115.022 244.212C116.591 243.097 118.168 241.982 119.737 240.866C120.66 241.446 121.619 241.952 122.623 242.368C121.054 243.484 119.477 244.599 117.908 245.714C116.911 245.291 115.944 244.785 115.022 244.212Z" fill="white"/>
</mask>
<g mask="url(#mask12_48_348)">
<path d="M129.964 243.878L125.249 247.224C114.992 247.224 106.008 238.628 105.212 228.069L109.927 224.723C110.723 235.289 119.708 243.878 129.964 243.878Z" fill="#9D8528"/>
</g>
<mask id="mask13_48_348" style="mask-type:luminance" maskUnits="userSpaceOnUse" x="114" y="240" width="6" height="5">
<path d="M115.022 244.212C114.888 244.123 114.747 244.041 114.613 243.952C116.182 242.837 117.759 241.721 119.328 240.606C119.462 240.695 119.604 240.784 119.737 240.866C118.168 241.982 116.591 243.097 115.022 244.212Z" fill="white"/>
</mask>
<g mask="url(#mask13_48_348)">
<path d="M129.964 243.878L125.249 247.224C114.992 247.224 106.008 238.628 105.212 228.069L109.927 224.723C110.723 235.289 119.708 243.878 129.964 243.878Z" fill="#9D8528"/>
</g>
<mask id="mask14_48_348" style="mask-type:luminance" maskUnits="userSpaceOnUse" x="105" y="224" width="15" height="20">
<path d="M114.613 243.945C109.407 240.502 105.71 234.665 105.212 228.062L109.927 224.716C110.426 231.319 114.122 237.148 119.328 240.599C117.759 241.714 116.182 242.829 114.613 243.945Z" fill="white"/>
</mask>
<g mask="url(#mask14_48_348)">
<path d="M129.964 243.878L125.249 247.224C114.992 247.224 106.008 238.628 105.212 228.069L109.927 224.723C110.723 235.29 119.708 243.878 129.964 243.878Z" fill="#9D8528"/>
</g>
<path d="M246.303 136.506C256.559 136.506 265.544 145.101 266.339 155.66L271.531 224.723C272.327 235.29 264.629 243.878 254.38 243.878H129.972C119.715 243.878 110.731 235.282 109.935 224.723L104.743 155.66C103.947 145.094 111.645 136.506 121.894 136.506H246.303Z" fill="#F8CD3C"/>
<mask id="mask15_48_348" style="mask-type:luminance" maskUnits="userSpaceOnUse" x="103" y="224" width="28" height="25">
<path d="M130.076 245.328L125.36 248.674C114.338 248.674 104.669 239.431 103.814 228.069L108.529 224.723C109.384 236.085 119.053 245.328 130.076 245.328Z" fill="white"/>
</mask>
<g mask="url(#mask15_48_348)">
<path d="M130.076 245.328L125.36 248.674C114.338 248.674 104.669 239.431 103.814 228.069L108.529 224.723C109.384 236.085 119.053 245.328 130.076 245.328Z" fill="black"/>
</g>
<path d="M267.745 155.66L272.944 224.723C273.799 236.085 265.521 245.328 254.484 245.328H130.076C119.053 245.328 109.384 236.085 108.529 224.723L103.338 155.66C102.482 144.298 110.76 135.048 121.79 135.048H246.198C257.228 135.048 266.897 144.298 267.745 155.66ZM271.531 224.723L266.339 155.66C265.544 145.094 256.559 136.506 246.303 136.506H121.894C111.638 136.506 103.947 145.101 104.743 155.66L109.935 224.723C110.731 235.29 119.715 243.878 129.972 243.878H254.38C264.636 243.878 272.327 235.282 271.531 224.723Z" fill="black"/>
<path d="M233.993 143.309L233.897 143.495H229.538L229.62 143.339L233.993 143.309Z" fill="#666666"/>
<path d="M233.897 143.495L188.728 235.803H179.528L229.538 143.495H233.897Z" fill="#8DA8A0"/>
<path d="M223.387 143.495L175.192 235.803H139.975L191.696 143.495H223.387Z" fill="#8DA8A0"/>
<path d="M223.544 143.19L223.387 143.495H191.696L223.544 143.19Z" fill="#666666"/>
<path d="M238.039 142.053C249.456 142.053 259.467 151.623 260.352 163.386L264.301 215.92C264.733 221.615 262.978 226.969 259.37 230.999C255.763 235.029 250.728 237.253 245.194 237.253H137.097C125.68 237.253 115.677 227.683 114.791 215.92L110.835 163.386C110.403 157.69 112.159 152.329 115.773 148.299C119.388 144.269 124.408 142.053 129.942 142.053H238.039ZM262.896 215.927L258.946 163.393C258.121 152.411 248.809 143.503 238.151 143.503H233.904L229.628 143.347L223.395 143.503H191.703H130.061C119.403 143.503 111.43 152.411 112.255 163.393L116.205 215.927C117.03 226.91 126.342 235.81 137 235.81H245.098C255.756 235.81 263.729 226.91 262.903 215.927" fill="black"/>
<path d="M238.144 143.495C248.802 143.495 258.113 152.403 258.939 163.386L262.888 215.92C263.714 226.902 255.741 235.803 245.083 235.803H136.985C126.327 235.803 117.015 226.902 116.19 215.92L112.24 163.386C111.415 152.403 119.388 143.495 130.046 143.495H191.689L139.96 235.803H175.185L223.38 143.495H229.531L179.521 235.803H188.721L233.889 143.495H238.136H238.144Z" fill="#3A7B6E"/>
<path d="M160.547 188.943C155.936 187.76 152.559 183.723 152.314 178.971C151.689 166.866 157.58 158.307 164.184 158.3C173.258 158.292 183.217 174.406 181.826 182.31C180.748 188.437 172.44 191.991 160.547 188.943Z" fill="white" stroke="#1D1D1B" stroke-width="2" stroke-miterlimit="10"/>
<path d="M161.574 168.1C160.622 173.461 162.838 181.343 167.494 183.7C170.96 185.455 174.835 183.671 176.196 180.258C178.799 173.736 172.172 161.43 167.249 161.006C164.318 160.754 162.176 164.724 161.581 168.108L161.574 168.1Z" fill="#1D1D1B"/>
<path d="M203.775 188.905C199.364 187.738 196.151 183.894 195.876 179.343C195.125 167.067 201.06 158.352 207.731 158.344C216.805 158.337 226.764 174.45 225.373 182.355C224.287 188.534 215.838 192.095 203.775 188.905Z" fill="white" stroke="#1D1D1B" stroke-width="2" stroke-miterlimit="10"/>
<path d="M202.562 166.896C201.61 172.257 203.827 180.139 208.483 182.496C211.948 184.251 215.823 182.466 217.185 179.053C219.788 172.532 213.161 160.226 208.237 159.802C205.307 159.549 203.165 163.52 202.57 166.903L202.562 166.896Z" fill="#1D1D1B"/>
<path d="M205.612 198.721C200.532 192.824 180.934 193.649 176.999 198.721C176.345 199.561 176.099 200.565 176.181 201.643L206.839 201.241C206.66 200.334 206.274 199.472 205.612 198.713V198.721Z" fill="white" stroke="#1D1D1B" stroke-width="2" stroke-miterlimit="10"/>
<path d="M176.181 201.643C176.59 207.16 185.627 214.752 194.069 214.038C201.469 213.421 207.85 206.461 206.839 201.241L176.181 201.643Z" fill="#E71D73" stroke="#1D1D1B" stroke-width="2" stroke-miterlimit="10"/>
</svg>
