<svg width="481" height="513" viewBox="0 0 481 513" fill="none" xmlns="http://www.w3.org/2000/svg">
<mask id="mask0_205_1106" style="mask-type:luminance" maskUnits="userSpaceOnUse" x="293" y="126" width="35" height="31">
<path d="M327.97 146.715L315.198 156.318C314.202 144.843 304.32 135.573 293.158 135.662L305.93 126.059C317.092 125.97 326.974 135.232 327.97 146.715Z" fill="white"/>
</mask>
<g mask="url(#mask0_205_1106)">
<path d="M327.97 146.715L315.198 156.318C314.202 144.843 304.32 135.573 293.158 135.662L305.93 126.059C317.092 125.97 326.974 135.232 327.97 146.715Z" fill="black"/>
</g>
<path d="M305.93 126.059L293.158 135.662L129.663 136.991L142.435 127.38L305.93 126.059Z" fill="black"/>
<path d="M350.973 411.628L338.201 421.239L315.198 156.318L327.97 146.715L350.973 411.628Z" fill="black"/>
<mask id="mask1_205_1106" style="mask-type:luminance" maskUnits="userSpaceOnUse" x="118" y="127" width="25" height="14">
<path d="M118.647 140.662L131.419 131.059C134.455 128.774 138.243 127.42 142.435 127.388L129.663 136.991C125.471 137.023 121.683 138.376 118.647 140.662Z" fill="white"/>
</mask>
<g mask="url(#mask1_205_1106)">
<path d="M142.435 127.38L129.663 136.983C125.471 137.015 121.683 138.369 118.647 140.654L131.419 131.051C134.455 128.766 138.243 127.413 142.435 127.38Z" fill="black"/>
</g>
<mask id="mask2_205_1106" style="mask-type:luminance" maskUnits="userSpaceOnUse" x="330" y="411" width="22" height="28">
<path d="M343.567 428.938L330.795 438.54C335.837 434.748 338.816 428.395 338.192 421.231L350.965 411.628C351.588 418.792 348.601 425.145 343.567 428.938Z" fill="white"/>
</mask>
<g mask="url(#mask2_205_1106)">
<path d="M343.567 428.938L330.795 438.54C335.837 434.748 338.816 428.395 338.192 421.231L350.965 411.628C351.588 418.792 348.601 425.145 343.567 428.938Z" fill="black"/>
</g>
<mask id="mask3_205_1106" style="mask-type:luminance" maskUnits="userSpaceOnUse" x="111" y="131" width="21" height="27">
<path d="M118.647 140.662L131.419 131.059C126.377 134.851 123.398 141.204 124.022 148.368L111.25 157.971C110.626 150.807 113.613 144.454 118.647 140.662Z" fill="white"/>
</mask>
<g mask="url(#mask3_205_1106)">
<path d="M124.014 148.36L111.242 157.963C110.619 150.799 113.605 144.446 118.64 140.654L131.412 131.051C126.369 134.843 123.391 141.197 124.014 148.36Z" fill="#147477"/>
</g>
<mask id="mask4_205_1106" style="mask-type:luminance" maskUnits="userSpaceOnUse" x="109" y="129" width="22" height="29">
<path d="M117.668 139.365L130.44 129.762C125.017 133.838 121.812 140.678 122.476 148.376L109.704 157.979C109.032 150.28 112.245 143.441 117.668 139.365Z" fill="white"/>
</mask>
<g mask="url(#mask4_205_1106)">
<path d="M122.476 148.376L109.704 157.979C109.032 150.28 112.245 143.441 117.668 139.365L130.44 129.762C125.017 133.838 121.812 140.678 122.476 148.376Z" fill="black"/>
</g>
<mask id="mask5_205_1106" style="mask-type:luminance" maskUnits="userSpaceOnUse" x="319" y="428" width="25" height="15">
<path d="M343.567 428.938L330.795 438.54C327.751 440.826 323.964 442.179 319.771 442.211L332.543 432.609C336.744 432.576 340.532 431.223 343.567 428.938Z" fill="white"/>
</mask>
<g mask="url(#mask5_205_1106)">
<path d="M343.567 428.938L330.795 438.54C327.751 440.826 323.964 442.179 319.771 442.211L332.543 432.609C336.744 432.576 340.532 431.223 343.567 428.938Z" fill="#147477"/>
</g>
<mask id="mask6_205_1106" style="mask-type:luminance" maskUnits="userSpaceOnUse" x="319" y="430" width="26" height="14">
<path d="M344.538 430.242L331.766 439.845C328.496 442.301 324.425 443.759 319.909 443.792L332.681 434.189C337.197 434.148 341.268 432.698 344.538 430.242Z" fill="white"/>
</mask>
<g mask="url(#mask6_205_1106)">
<path d="M344.538 430.242L331.766 439.845C328.496 442.301 324.425 443.759 319.909 443.792L332.681 434.189C337.197 434.148 341.268 432.698 344.538 430.242Z" fill="black"/>
</g>
<path d="M332.543 432.609L319.771 442.22L156.276 443.54L169.048 433.938L332.543 432.609Z" fill="#137174"/>
<path d="M332.681 434.189L319.909 443.8L156.413 445.12L169.185 435.518L332.681 434.189Z" fill="black"/>
<path d="M147.016 413.281L134.244 422.884L111.242 157.971L124.014 148.36L147.016 413.281Z" fill="#137174"/>
<path d="M145.478 413.298L132.706 422.901L109.712 157.979L122.476 148.376L145.478 413.298Z" fill="black"/>
<mask id="mask7_205_1106" style="mask-type:luminance" maskUnits="userSpaceOnUse" x="143" y="429" width="27" height="15">
<path d="M143.334 439.14C143.512 439.002 143.754 438.824 143.933 438.686C144.119 438.54 144.378 438.354 144.564 438.208C144.75 438.062 145.025 437.86 145.219 437.714C145.414 437.568 145.689 437.365 145.891 437.211C146.094 437.057 146.361 436.863 146.563 436.709C146.765 436.555 147.024 436.361 147.219 436.215C147.413 436.069 147.664 435.882 147.85 435.737C148.028 435.599 148.271 435.421 148.449 435.291C148.716 435.088 149.08 434.821 149.347 434.618C149.631 434.408 150.011 434.116 150.294 433.905C150.578 433.694 150.982 433.387 151.282 433.168C151.581 432.949 151.986 432.641 152.285 432.414C152.585 432.187 152.99 431.887 153.289 431.66C153.588 431.434 153.977 431.142 154.276 430.923C154.576 430.704 154.94 430.421 155.223 430.21C155.491 430.007 155.847 429.74 156.114 429.537C159.813 432.325 164.321 433.978 169.056 433.938L156.284 443.54C151.549 443.581 147.041 441.928 143.342 439.14H143.334Z" fill="white"/>
</mask>
<g mask="url(#mask7_205_1106)">
<path d="M169.048 433.938L156.276 443.54C145.122 443.63 135.24 434.367 134.244 422.884L147.016 413.282C148.012 424.756 157.894 434.027 169.048 433.938Z" fill="#147477"/>
</g>
<mask id="mask8_205_1106" style="mask-type:luminance" maskUnits="userSpaceOnUse" x="134" y="413" width="23" height="27">
<path d="M143.334 439.14C138.332 435.364 134.811 429.489 134.244 422.892L147.016 413.29C147.591 419.894 151.104 425.761 156.106 429.537C151.848 432.738 147.591 435.939 143.334 439.14Z" fill="white"/>
</mask>
<g mask="url(#mask8_205_1106)">
<path d="M169.048 433.938L156.276 443.54C145.122 443.63 135.24 434.367 134.244 422.884L147.016 413.282C148.012 424.756 157.894 434.027 169.048 433.938Z" fill="#147477"/>
</g>
<path d="M305.93 126.059C317.092 125.97 326.974 135.232 327.97 146.715L350.965 411.637C351.96 423.111 343.696 432.528 332.535 432.617L169.04 433.938C157.886 434.027 148.004 424.764 147.008 413.282L124.014 148.36C123.018 136.885 131.282 127.469 142.435 127.38L305.93 126.059Z" fill="#1DB1B7"/>
<path d="M305.793 124.487C317.796 124.39 328.431 134.357 329.5 146.699L352.494 411.62C353.563 423.97 344.676 434.092 332.672 434.189L169.177 435.51C157.174 435.607 146.539 425.64 145.47 413.29L122.476 148.368C121.407 136.026 130.294 125.897 142.298 125.8L305.793 124.479V124.487ZM350.973 411.628L327.978 146.707C326.983 135.232 317.1 125.962 305.939 126.051L142.443 127.372C131.29 127.461 123.026 136.877 124.022 148.352L147.016 413.273C148.012 424.748 157.894 434.019 169.048 433.921L332.543 432.601C343.704 432.511 351.968 423.095 350.973 411.62" fill="black"/>
<mask id="mask9_205_1106" style="mask-type:luminance" maskUnits="userSpaceOnUse" x="132" y="413" width="38" height="33">
<path d="M169.185 435.518L156.413 445.121C144.41 445.218 133.775 435.25 132.706 422.901L145.478 413.298C146.547 425.648 157.182 435.615 169.185 435.518Z" fill="white"/>
</mask>
<g mask="url(#mask9_205_1106)">
<path d="M169.185 435.518L156.413 445.121C144.41 445.218 133.775 435.25 132.706 422.901L145.478 413.298C146.547 425.648 157.182 435.615 169.185 435.518Z" fill="black"/>
</g>
<mask id="mask10_205_1106" style="mask-type:luminance" maskUnits="userSpaceOnUse" x="293" y="145" width="28" height="26">
<path d="M320.653 166.601L315.522 170.248C314.656 158.733 304.878 149.373 293.717 149.373L298.848 145.726C310.01 145.726 319.787 155.094 320.653 166.601Z" fill="white"/>
</mask>
<g mask="url(#mask10_205_1106)">
<path d="M320.653 166.601L315.522 170.248C314.656 158.733 304.878 149.373 293.717 149.373L298.848 145.726C310.01 145.726 319.787 155.094 320.653 166.601Z" fill="black"/>
</g>
<path d="M326.303 241.867L321.171 245.505L315.522 170.248L320.653 166.601L326.303 241.867Z" fill="black"/>
<mask id="mask11_205_1106" style="mask-type:luminance" maskUnits="userSpaceOnUse" x="313" y="241" width="14" height="23">
<path d="M318.419 259.354L313.288 263.001C318.541 259.273 321.722 252.823 321.171 245.505L326.303 241.859C326.853 249.176 323.672 255.619 318.419 259.354Z" fill="white"/>
</mask>
<g mask="url(#mask11_205_1106)">
<path d="M318.419 259.354L313.288 263.001C318.541 259.273 321.722 252.823 321.171 245.505L326.303 241.859C326.853 249.176 323.672 255.619 318.419 259.354Z" fill="black"/>
</g>
<mask id="mask12_205_1106" style="mask-type:luminance" maskUnits="userSpaceOnUse" x="302" y="259" width="17" height="8">
<path d="M318.419 259.354L313.288 263.001C310.269 265.14 306.57 266.388 302.507 266.388L307.638 262.742C311.709 262.742 315.408 261.494 318.419 259.354Z" fill="white"/>
</mask>
<g mask="url(#mask12_205_1106)">
<path d="M318.419 259.354L313.288 263.001C310.269 265.14 306.57 266.388 302.507 266.388L307.638 262.742C311.709 262.742 315.408 261.494 318.419 259.354Z" fill="#9D8528"/>
</g>
<mask id="mask13_205_1106" style="mask-type:luminance" maskUnits="userSpaceOnUse" x="302" y="260" width="18" height="8">
<path d="M319.366 260.675L314.235 264.322C310.989 266.623 307.007 267.968 302.628 267.968L307.76 264.322C312.138 264.322 316.121 262.985 319.366 260.675Z" fill="white"/>
</mask>
<g mask="url(#mask13_205_1106)">
<path d="M319.366 260.675L314.235 264.322C310.989 266.623 307.007 267.968 302.628 267.968L307.76 264.322C312.138 264.322 316.121 262.985 319.366 260.675Z" fill="black"/>
</g>
<path d="M298.856 145.718L293.717 149.365H158.331L163.463 145.718H298.856Z" fill="black"/>
<mask id="mask14_205_1106" style="mask-type:luminance" maskUnits="userSpaceOnUse" x="147" y="145" width="17" height="8">
<path d="M147.542 152.752L152.674 149.106C155.693 146.966 159.392 145.718 163.455 145.718L158.323 149.365C154.252 149.365 150.553 150.613 147.542 152.752Z" fill="white"/>
</mask>
<g mask="url(#mask14_205_1106)">
<path d="M163.463 145.718L158.331 149.365C154.26 149.365 150.561 150.613 147.55 152.752L152.682 149.106C155.701 146.966 159.4 145.718 163.463 145.718Z" fill="black"/>
</g>
<mask id="mask15_205_1106" style="mask-type:luminance" maskUnits="userSpaceOnUse" x="139" y="149" width="14" height="22">
<path d="M147.542 152.752L152.674 149.105C147.421 152.833 144.24 159.284 144.79 166.601L139.659 170.248C139.109 162.93 142.289 156.488 147.542 152.752Z" fill="white"/>
</mask>
<g mask="url(#mask15_205_1106)">
<path d="M144.798 166.601L139.667 170.248C139.117 162.93 142.297 156.488 147.55 152.752L152.682 149.105C147.429 152.833 144.248 159.284 144.798 166.601Z" fill="#9D8528"/>
</g>
<mask id="mask16_205_1106" style="mask-type:luminance" maskUnits="userSpaceOnUse" x="138" y="147" width="14" height="24">
<path d="M146.612 151.423L151.743 147.776C146.094 151.788 142.67 158.724 143.261 166.601L138.129 170.248C137.538 162.379 140.962 155.442 146.612 151.423Z" fill="white"/>
</mask>
<g mask="url(#mask16_205_1106)">
<path d="M143.269 166.601L138.137 170.248C137.546 162.379 140.97 155.442 146.619 151.423L151.751 147.776C146.101 151.788 142.678 158.724 143.269 166.601Z" fill="black"/>
</g>
<path d="M307.638 262.742L302.507 266.388H167.113L172.253 262.742H307.638Z" fill="#998227"/>
<path d="M307.76 264.322L302.62 267.968H167.235L172.366 264.322H307.76Z" fill="black"/>
<mask id="mask17_205_1106" style="mask-type:luminance" maskUnits="userSpaceOnUse" x="159" y="261" width="14" height="6">
<path d="M167.113 266.388C164.321 266.388 161.618 265.805 159.125 264.743C160.832 263.528 162.548 262.312 164.256 261.097C166.757 262.158 169.46 262.742 172.245 262.742C170.707 263.836 168.651 265.294 167.113 266.388Z" fill="white"/>
</mask>
<g mask="url(#mask17_205_1106)">
<path d="M172.253 262.742L167.121 266.388C155.96 266.388 146.183 257.021 145.317 245.514L150.448 241.867C151.314 253.382 161.091 262.742 172.253 262.742Z" fill="#9D8528"/>
</g>
<path d="M150.448 241.867L145.308 245.505L139.659 170.248L144.799 166.601L150.448 241.867Z" fill="#998227"/>
<path d="M148.918 241.867L143.779 245.505L138.129 170.248L143.269 166.601L148.918 241.867Z" fill="black"/>
<mask id="mask18_205_1106" style="mask-type:luminance" maskUnits="userSpaceOnUse" x="155" y="259" width="10" height="6">
<path d="M155.984 263.106C157.692 261.891 159.408 260.675 161.116 259.46C162.119 260.092 163.163 260.643 164.256 261.097C162.548 262.312 160.832 263.528 159.125 264.743C158.04 264.281 156.988 263.73 155.984 263.106Z" fill="white"/>
</mask>
<g mask="url(#mask18_205_1106)">
<path d="M172.253 262.742L167.121 266.388C155.96 266.388 146.183 257.021 145.317 245.514L150.448 241.867C151.314 253.382 161.091 262.742 172.253 262.742Z" fill="#9D8528"/>
</g>
<mask id="mask19_205_1106" style="mask-type:luminance" maskUnits="userSpaceOnUse" x="155" y="259" width="7" height="5">
<path d="M155.984 263.106C155.839 263.009 155.685 262.92 155.539 262.823C157.247 261.607 158.963 260.392 160.671 259.176C160.816 259.273 160.97 259.371 161.116 259.46C159.408 260.675 157.692 261.891 155.984 263.106Z" fill="white"/>
</mask>
<g mask="url(#mask19_205_1106)">
<path d="M172.253 262.742L167.121 266.388C155.96 266.388 146.183 257.021 145.317 245.514L150.448 241.867C151.314 253.382 161.091 262.742 172.253 262.742Z" fill="#9D8528"/>
</g>
<mask id="mask20_205_1106" style="mask-type:luminance" maskUnits="userSpaceOnUse" x="145" y="241" width="16" height="22">
<path d="M155.539 262.815C149.873 259.063 145.851 252.701 145.308 245.505L150.44 241.859C150.982 249.055 155.005 255.408 160.671 259.168C158.963 260.384 157.247 261.599 155.539 262.815Z" fill="white"/>
</mask>
<g mask="url(#mask20_205_1106)">
<path d="M172.253 262.742L167.121 266.388C155.96 266.388 146.182 257.021 145.316 245.514L150.448 241.867C151.314 253.382 161.091 262.742 172.253 262.742Z" fill="#9D8528"/>
</g>
<path d="M298.856 145.726C310.018 145.726 319.795 155.094 320.661 166.601L326.311 241.867C327.177 253.382 318.8 262.742 307.646 262.742H172.261C161.1 262.742 151.322 253.374 150.456 241.867L144.807 166.601C143.941 155.086 152.318 145.726 163.471 145.726H298.856Z" fill="#F8CD3C"/>
<mask id="mask21_205_1106" style="mask-type:luminance" maskUnits="userSpaceOnUse" x="143" y="241" width="30" height="27">
<path d="M172.366 264.322L167.235 267.969C155.24 267.969 144.718 257.896 143.787 245.514L148.918 241.867C149.849 254.249 160.371 264.322 172.366 264.322Z" fill="white"/>
</mask>
<g mask="url(#mask21_205_1106)">
<path d="M172.366 264.322L167.235 267.969C155.24 267.969 144.718 257.896 143.787 245.514L148.918 241.867C149.849 254.249 160.371 264.322 172.366 264.322Z" fill="black"/>
</g>
<path d="M322.183 166.601L327.84 241.867C328.771 254.249 319.763 264.322 307.752 264.322H172.366C160.371 264.322 149.849 254.249 148.918 241.867L143.269 166.601C142.338 154.219 151.346 144.138 163.35 144.138H298.735C310.738 144.138 321.26 154.219 322.183 166.601ZM326.303 241.867L320.653 166.601C319.787 155.086 310.01 145.726 298.848 145.726H163.463C152.302 145.726 143.933 155.094 144.799 166.601L150.448 241.867C151.314 253.382 161.091 262.742 172.253 262.742H307.638C318.8 262.742 327.169 253.374 326.303 241.867Z" fill="black"/>
<mask id="mask22_205_1106" style="mask-type:luminance" maskUnits="userSpaceOnUse" x="321" y="372" width="15" height="13">
<path d="M335.586 381.046L330.455 384.692C330.091 379.871 325.995 375.94 321.317 375.94L326.448 372.294C331.127 372.294 335.222 376.216 335.586 381.046Z" fill="white"/>
</mask>
<g mask="url(#mask22_205_1106)">
<path d="M335.586 381.046L330.455 384.692C330.091 379.871 325.995 375.94 321.317 375.94L326.448 372.294C331.127 372.294 335.222 376.216 335.586 381.046Z" fill="black"/>
</g>
<path d="M337.407 405.308L332.276 408.946L330.455 384.692L335.586 381.046L337.407 405.308Z" fill="black"/>
<mask id="mask23_205_1106" style="mask-type:luminance" maskUnits="userSpaceOnUse" x="328" y="405" width="10" height="12">
<path d="M334.105 412.633L328.974 416.28C331.175 414.716 332.503 412.017 332.276 408.954L337.407 405.308C337.634 408.371 336.307 411.077 334.105 412.633Z" fill="white"/>
</mask>
<g mask="url(#mask23_205_1106)">
<path d="M334.105 412.633L328.974 416.28C331.175 414.716 332.503 412.017 332.276 408.954L337.407 405.308C337.634 408.371 336.307 411.077 334.105 412.633Z" fill="black"/>
</g>
<mask id="mask24_205_1106" style="mask-type:luminance" maskUnits="userSpaceOnUse" x="324" y="412" width="11" height="6">
<path d="M334.105 412.633L328.974 416.28C327.711 417.179 326.157 417.698 324.457 417.698L329.589 414.051C331.297 414.051 332.842 413.533 334.105 412.633Z" fill="white"/>
</mask>
<g mask="url(#mask24_205_1106)">
<path d="M334.105 412.633L328.974 416.28C327.711 417.179 326.157 417.698 324.457 417.698L329.589 414.051C331.297 414.051 332.842 413.533 334.105 412.633Z" fill="#9D8528"/>
</g>
<mask id="mask25_205_1106" style="mask-type:luminance" maskUnits="userSpaceOnUse" x="324" y="413" width="12" height="7">
<path d="M335.036 413.962L329.904 417.609C328.415 418.671 326.586 419.286 324.571 419.286L329.702 415.64C331.709 415.64 333.539 415.024 335.036 413.962Z" fill="white"/>
</mask>
<g mask="url(#mask25_205_1106)">
<path d="M335.036 413.962L329.904 417.609C328.415 418.671 326.586 419.286 324.571 419.286L329.702 415.64C331.709 415.64 333.539 415.024 335.036 413.962Z" fill="black"/>
</g>
<path d="M326.448 372.294L321.317 375.94H247.056L252.187 372.294H326.448Z" fill="black"/>
<mask id="mask26_205_1106" style="mask-type:luminance" maskUnits="userSpaceOnUse" x="242" y="372" width="11" height="6">
<path d="M242.532 377.358L247.663 373.712C248.926 372.812 250.48 372.294 252.179 372.294L247.048 375.94C245.34 375.94 243.794 376.459 242.532 377.358Z" fill="white"/>
</mask>
<g mask="url(#mask26_205_1106)">
<path d="M252.187 372.294L247.056 375.94C245.348 375.94 243.802 376.459 242.539 377.358L247.671 373.712C248.934 372.812 250.488 372.294 252.187 372.294Z" fill="black"/>
</g>
<mask id="mask27_205_1106" style="mask-type:luminance" maskUnits="userSpaceOnUse" x="239" y="373" width="9" height="12">
<path d="M242.532 377.359L247.663 373.712C245.462 375.276 244.134 377.974 244.361 381.038L239.229 384.684C239.003 381.621 240.33 378.914 242.532 377.359Z" fill="white"/>
</mask>
<g mask="url(#mask27_205_1106)">
<path d="M244.369 381.045L239.237 384.692C239.011 381.629 240.338 378.922 242.539 377.366L247.671 373.72C245.469 375.284 244.142 377.982 244.369 381.045Z" fill="#9D8528"/>
</g>
<mask id="mask28_205_1106" style="mask-type:luminance" maskUnits="userSpaceOnUse" x="237" y="372" width="10" height="13">
<path d="M241.601 376.029L246.732 372.383C244.134 374.23 242.556 377.423 242.831 381.037L237.7 384.684C237.424 381.062 239.003 377.869 241.601 376.029Z" fill="white"/>
</mask>
<g mask="url(#mask28_205_1106)">
<path d="M242.839 381.045L237.707 384.692C237.432 381.07 239.011 377.877 241.609 376.037L246.74 372.391C244.142 374.238 242.564 377.431 242.839 381.045Z" fill="black"/>
</g>
<path d="M329.589 414.052L324.449 417.698H250.188L255.32 414.052H329.589Z" fill="#998227"/>
<path d="M329.702 415.64L324.571 419.278H250.31L255.441 415.64H329.702Z" fill="black"/>
<path d="M246.19 405.308L241.05 408.946L239.229 384.692L244.369 381.046L246.19 405.308Z" fill="#998227"/>
<mask id="mask29_205_1106" style="mask-type:luminance" maskUnits="userSpaceOnUse" x="244" y="411" width="12" height="7">
<path d="M250.188 417.698C247.849 417.698 245.656 416.717 244.005 415.137C245.712 413.922 247.428 412.706 249.136 411.491C250.787 413.071 252.981 414.051 255.32 414.051C253.782 415.145 251.985 417.123 250.188 417.698Z" fill="white"/>
</mask>
<g mask="url(#mask29_205_1106)">
<path d="M255.32 414.051L250.188 417.698C245.51 417.698 241.415 413.776 241.05 408.946L246.182 405.3C246.546 410.121 250.642 414.051 255.32 414.051Z" fill="#9D8528"/>
</g>
<path d="M244.66 405.308L239.521 408.946L237.7 384.692L242.839 381.046L244.66 405.308Z" fill="black"/>
<mask id="mask30_205_1106" style="mask-type:luminance" maskUnits="userSpaceOnUse" x="241" y="405" width="9" height="11">
<path d="M244.005 415.129C242.353 413.549 241.237 411.361 241.058 408.946L246.19 405.3C246.368 407.714 247.485 409.902 249.136 411.483C247.428 412.698 245.712 413.914 244.005 415.129Z" fill="white"/>
</mask>
<g mask="url(#mask30_205_1106)">
<path d="M255.32 414.051L250.188 417.698C245.51 417.698 241.415 413.776 241.051 408.946L246.182 405.3C246.546 410.121 250.642 414.051 255.32 414.051Z" fill="#9D8528"/>
</g>
<path d="M326.448 372.294C331.127 372.294 335.222 376.216 335.586 381.046L337.407 405.308C337.772 410.129 334.259 414.059 329.589 414.059H255.328C250.65 414.059 246.554 410.137 246.19 405.308L244.369 381.046C244.005 376.224 247.517 372.294 252.187 372.294H326.448Z" fill="#F8CD3C"/>
<path d="M326.335 370.714C331.855 370.714 336.687 375.349 337.116 381.046L338.937 405.308C339.366 411.005 335.222 415.64 329.702 415.64H255.441C249.921 415.64 245.089 411.005 244.66 405.308L242.839 381.046C242.41 375.349 246.554 370.714 252.074 370.714H326.335ZM337.407 405.308L335.586 381.046C335.222 376.224 331.127 372.294 326.448 372.294H252.187C247.509 372.294 244.005 376.216 244.369 381.046L246.19 405.308C246.554 410.129 250.65 414.051 255.328 414.051H329.589C334.267 414.051 337.772 410.129 337.407 405.308Z" fill="black"/>
<mask id="mask31_205_1106" style="mask-type:luminance" maskUnits="userSpaceOnUse" x="239" y="405" width="17" height="15">
<path d="M255.441 415.64L250.31 419.286C244.79 419.286 239.958 414.651 239.529 408.954L244.66 405.308C245.089 411.004 249.929 415.64 255.441 415.64Z" fill="white"/>
</mask>
<g mask="url(#mask31_205_1106)">
<path d="M255.441 415.64L250.31 419.286C244.79 419.286 239.958 414.651 239.529 408.954L244.66 405.308C245.089 411.004 249.929 415.64 255.441 415.64Z" fill="black"/>
</g>
<mask id="mask32_205_1106" style="mask-type:luminance" maskUnits="userSpaceOnUse" x="309" y="309" width="16" height="21">
<path d="M317.319 324.321L309.613 329.791C313.83 326.29 316.323 321.185 316.655 315.439L324.36 309.969C324.028 315.715 321.527 320.82 317.319 324.321Z" fill="white"/>
</mask>
<g mask="url(#mask32_205_1106)">
<path d="M317.319 324.321L309.613 329.791C313.83 326.29 316.323 321.185 316.655 315.439L324.36 309.969C324.028 315.715 321.527 320.82 317.319 324.321Z" fill="black"/>
</g>
<mask id="mask33_205_1106" style="mask-type:luminance" maskUnits="userSpaceOnUse" x="282" y="285" width="43" height="31">
<path d="M282.725 294.305L290.431 288.835C293.685 286.526 297.545 285.318 301.616 285.318C302.572 285.318 303.543 285.383 304.514 285.521C310.139 286.299 315.303 289.281 319.059 293.9C322.806 298.519 324.692 304.224 324.36 309.969L316.655 315.439C316.979 309.694 315.101 303.989 311.353 299.37C307.606 294.751 302.434 291.777 296.809 290.991C295.837 290.853 294.866 290.788 293.911 290.788C289.84 290.788 285.979 291.995 282.725 294.305Z" fill="white"/>
</mask>
<g mask="url(#mask33_205_1106)">
<path d="M324.36 309.961L316.655 315.431C316.979 309.686 315.101 303.981 311.353 299.362C307.606 294.743 302.434 291.769 296.809 290.983C295.837 290.845 294.866 290.78 293.911 290.78C289.84 290.78 285.979 291.988 282.725 294.297L290.431 288.827C293.685 286.518 297.545 285.31 301.616 285.31C302.572 285.31 303.543 285.375 304.514 285.513C310.139 286.291 315.303 289.273 319.059 293.892C322.806 298.511 324.692 304.216 324.36 309.961Z" fill="black"/>
</g>
<mask id="mask34_205_1106" style="mask-type:luminance" maskUnits="userSpaceOnUse" x="281" y="288" width="10" height="8">
<path d="M282.725 294.305L290.431 288.835C290.026 289.119 289.638 289.427 289.249 289.743L281.544 295.213C281.924 294.897 282.321 294.589 282.725 294.305Z" fill="white"/>
</mask>
<g mask="url(#mask34_205_1106)">
<path d="M289.249 289.743L281.544 295.213C281.924 294.897 282.321 294.589 282.725 294.305L290.431 288.835C290.026 289.119 289.638 289.427 289.249 289.743Z" fill="#295A4F"/>
</g>
<mask id="mask35_205_1106" style="mask-type:luminance" maskUnits="userSpaceOnUse" x="280" y="287" width="10" height="7">
<path d="M281.803 292.976L289.508 287.506C289.071 287.814 288.65 288.138 288.237 288.487L280.532 293.957C280.945 293.616 281.366 293.284 281.803 292.976Z" fill="white"/>
</mask>
<g mask="url(#mask35_205_1106)">
<path d="M288.229 288.487L280.524 293.957C280.937 293.616 281.358 293.284 281.795 292.976L289.5 287.506C289.063 287.814 288.642 288.138 288.229 288.487Z" fill="black"/>
</g>
<path d="M294.955 342.959L287.25 348.429L309.613 329.782L317.319 324.321L294.955 342.959Z" fill="black"/>
<mask id="mask36_205_1106" style="mask-type:luminance" maskUnits="userSpaceOnUse" x="286" y="342" width="9" height="8">
<path d="M293.782 343.858L286.076 349.328C286.473 349.045 286.87 348.745 287.25 348.429L294.955 342.959C294.575 343.275 294.186 343.575 293.782 343.858Z" fill="white"/>
</mask>
<g mask="url(#mask36_205_1106)">
<path d="M293.782 343.858L286.076 349.328C286.473 349.045 286.87 348.745 287.25 348.429L294.955 342.959C294.575 343.275 294.186 343.575 293.782 343.858Z" fill="black"/>
</g>
<path d="M266.886 308.381L259.189 313.843L281.552 295.213L289.249 289.743L266.886 308.381Z" fill="#28584E"/>
<path d="M265.874 307.125L258.169 312.595L280.532 293.957L288.229 288.487L265.874 307.125Z" fill="black"/>
<mask id="mask37_205_1106" style="mask-type:luminance" maskUnits="userSpaceOnUse" x="264" y="343" width="30" height="10">
<path d="M271.993 352.651C269.176 352.254 266.481 351.314 264.021 349.896C266.586 348.072 269.152 346.249 271.726 344.426C274.186 345.844 276.89 346.784 279.698 347.181C280.67 347.319 281.641 347.383 282.588 347.383C286.659 347.383 290.52 346.168 293.782 343.858L286.076 349.328C282.815 351.646 278.954 352.853 274.883 352.853C273.927 352.853 272.964 352.789 271.993 352.651Z" fill="white"/>
</mask>
<g mask="url(#mask37_205_1106)">
<path d="M293.782 343.858L286.076 349.328C282.815 351.646 278.954 352.853 274.883 352.853C273.927 352.853 272.964 352.788 271.993 352.651C266.36 351.865 261.204 348.891 257.448 344.272C249.711 334.742 250.488 321.087 259.181 313.843L266.886 308.373C258.193 315.617 257.416 329.272 265.154 338.802C268.901 343.421 274.065 346.395 279.698 347.181C280.67 347.319 281.641 347.383 282.588 347.383C286.659 347.383 290.52 346.168 293.782 343.858Z" fill="#295A4F"/>
</g>
<mask id="mask38_205_1106" style="mask-type:luminance" maskUnits="userSpaceOnUse" x="258" y="339" width="14" height="11">
<path d="M258.225 345.187C260.791 343.364 263.357 341.541 265.931 339.718C267.63 341.622 269.589 343.21 271.726 344.434C269.16 346.257 266.594 348.08 264.021 349.904C261.892 348.672 259.933 347.092 258.225 345.187Z" fill="white"/>
</mask>
<g mask="url(#mask38_205_1106)">
<path d="M293.782 343.859L286.076 349.328C282.815 351.646 278.954 352.853 274.883 352.853C273.927 352.853 272.964 352.789 271.993 352.651C266.36 351.865 261.204 348.891 257.448 344.272C249.711 334.742 250.488 321.088 259.181 313.843L266.886 308.373C258.193 315.618 257.416 329.272 265.154 338.802C268.901 343.421 274.065 346.395 279.698 347.181C280.67 347.319 281.641 347.384 282.588 347.384C286.659 347.384 290.52 346.168 293.782 343.859Z" fill="#295A4F"/>
</g>
<mask id="mask39_205_1106" style="mask-type:luminance" maskUnits="userSpaceOnUse" x="257" y="338" width="9" height="8">
<path d="M257.092 343.826C259.658 342.003 262.224 340.179 264.798 338.356C264.911 338.51 265.032 338.656 265.154 338.81C265.405 339.118 265.664 339.426 265.931 339.717C263.365 341.541 260.799 343.364 258.225 345.187C257.958 344.896 257.699 344.588 257.448 344.28C257.327 344.134 257.206 343.98 257.092 343.826Z" fill="white"/>
</mask>
<g mask="url(#mask39_205_1106)">
<path d="M293.782 343.858L286.076 349.328C282.815 351.646 278.954 352.853 274.883 352.853C273.927 352.853 272.964 352.788 271.993 352.651C266.36 351.865 261.204 348.891 257.448 344.272C249.711 334.742 250.488 321.087 259.181 313.843L266.886 308.373C258.193 315.617 257.416 329.272 265.154 338.802C268.901 343.421 274.065 346.395 279.698 347.181C280.67 347.319 281.641 347.383 282.588 347.383C286.659 347.383 290.52 346.168 293.782 343.858Z" fill="#295A4F"/>
</g>
<mask id="mask40_205_1106" style="mask-type:luminance" maskUnits="userSpaceOnUse" x="252" y="308" width="15" height="36">
<path d="M257.092 343.826C249.735 334.32 250.625 320.982 259.181 313.851L266.886 308.381C258.331 315.512 257.44 328.85 264.798 338.356C262.232 340.179 259.666 342.003 257.092 343.826Z" fill="white"/>
</mask>
<g mask="url(#mask40_205_1106)">
<path d="M293.782 343.859L286.076 349.328C282.815 351.646 278.954 352.853 274.883 352.853C273.928 352.853 272.964 352.789 271.993 352.651C266.36 351.865 261.204 348.891 257.448 344.272C249.711 334.742 250.488 321.088 259.181 313.843L266.886 308.373C258.193 315.618 257.416 329.272 265.154 338.802C268.901 343.421 274.065 346.395 279.698 347.181C280.67 347.319 281.641 347.384 282.588 347.384C286.659 347.384 290.52 346.168 293.782 343.859Z" fill="#295A4F"/>
</g>
<path d="M301.608 285.318C302.563 285.318 303.535 285.383 304.506 285.521C310.131 286.299 315.295 289.281 319.051 293.9C322.798 298.519 324.684 304.224 324.352 309.969C324.02 315.715 321.519 320.82 317.31 324.321L294.947 342.959C291.459 345.86 287.153 347.391 282.588 347.391C281.633 347.391 280.67 347.327 279.698 347.189C274.065 346.403 268.909 343.429 265.154 338.81C257.416 329.28 258.193 315.625 266.886 308.381L289.249 289.751C292.729 286.85 297.035 285.326 301.608 285.326V285.318Z" fill="#3A7B6E"/>
<mask id="mask41_205_1106" style="mask-type:luminance" maskUnits="userSpaceOnUse" x="250" y="307" width="45" height="48">
<path d="M294.704 345.195L286.999 350.665C283.511 353.145 279.375 354.434 275.012 354.434C273.984 354.434 272.948 354.361 271.904 354.223C265.866 353.388 260.33 350.195 256.307 345.236C248.003 335.017 248.845 320.374 258.169 312.603L265.874 307.133C256.55 314.896 255.708 329.547 264.013 339.766C268.035 344.725 273.571 347.918 279.609 348.753C280.653 348.899 281.689 348.964 282.717 348.964C287.08 348.964 291.208 347.675 294.704 345.195Z" fill="white"/>
</mask>
<g mask="url(#mask41_205_1106)">
<path d="M294.704 345.195L286.999 350.665C283.511 353.145 279.375 354.434 275.012 354.434C273.984 354.434 272.948 354.361 271.904 354.223C265.866 353.388 260.33 350.195 256.307 345.236C248.003 335.017 248.845 320.374 258.169 312.603L265.874 307.133C256.55 314.896 255.708 329.547 264.013 339.766C268.035 344.725 273.571 347.918 279.609 348.753C280.653 348.899 281.689 348.964 282.717 348.964C287.08 348.964 291.208 347.675 294.704 345.195Z" fill="black"/>
</g>
<path d="M320.2 292.936C324.214 297.887 326.238 304.013 325.89 310.18C325.542 316.339 322.855 321.817 318.338 325.569L295.975 344.199C292.236 347.319 287.622 348.955 282.717 348.955C281.689 348.955 280.653 348.883 279.609 348.745C273.571 347.91 268.035 344.717 264.013 339.758C255.708 329.539 256.55 314.896 265.874 307.125L288.237 288.487C291.969 285.375 296.598 283.738 301.495 283.738C302.523 283.738 303.559 283.811 304.603 283.957C310.641 284.791 316.177 287.984 320.2 292.936ZM324.36 309.961C324.684 304.216 322.806 298.511 319.059 293.892C315.311 289.273 310.139 286.299 304.514 285.513C303.543 285.375 302.572 285.31 301.616 285.31C297.043 285.31 292.738 286.842 289.257 289.735L266.894 308.365C258.201 315.609 257.424 329.264 265.162 338.794C268.909 343.413 274.073 346.387 279.706 347.173C280.678 347.31 281.649 347.375 282.596 347.375C287.169 347.375 291.475 345.844 294.955 342.943L317.318 324.304C321.535 320.804 324.028 315.698 324.36 309.953" fill="black"/>
<path d="M227.704 318.178L219.998 323.64L219.739 320.139L227.437 314.669L227.704 318.178Z" fill="black"/>
<mask id="mask42_205_1106" style="mask-type:luminance" maskUnits="userSpaceOnUse" x="209" y="304" width="19" height="17">
<path d="M227.437 314.669L219.731 320.139C219.318 314.588 214.592 310.067 209.209 310.067L216.915 304.597C222.297 304.597 227.024 309.118 227.437 314.669Z" fill="white"/>
</mask>
<g mask="url(#mask42_205_1106)">
<path d="M227.437 314.669L219.731 320.139C219.318 314.588 214.592 310.067 209.209 310.067L216.915 304.597C222.297 304.597 227.024 309.118 227.437 314.669Z" fill="black"/>
</g>
<mask id="mask43_205_1106" style="mask-type:luminance" maskUnits="userSpaceOnUse" x="185" y="280" width="19" height="17">
<path d="M203.738 290.845L196.032 296.315C195.62 290.764 190.901 286.242 185.519 286.242L193.224 280.772C198.606 280.772 203.325 285.294 203.738 290.845Z" fill="white"/>
</mask>
<g mask="url(#mask43_205_1106)">
<path d="M203.738 290.845L196.032 296.315C195.62 290.764 190.901 286.242 185.519 286.242L193.224 280.772C198.606 280.772 203.325 285.294 203.738 290.845Z" fill="black"/>
</g>
<mask id="mask44_205_1106" style="mask-type:luminance" maskUnits="userSpaceOnUse" x="216" y="318" width="12" height="15">
<path d="M223.9 326.614L216.194 332.084C218.728 330.285 220.265 327.173 219.998 323.64L227.704 318.17C227.971 321.703 226.433 324.815 223.9 326.614Z" fill="white"/>
</mask>
<g mask="url(#mask44_205_1106)">
<path d="M223.9 326.614L216.194 332.084C218.728 330.285 220.265 327.173 219.998 323.64L227.704 318.17C227.971 321.703 226.433 324.815 223.9 326.614Z" fill="black"/>
</g>
<path d="M204.774 304.605L197.069 310.075L196.041 296.315L203.738 290.845L204.774 304.605Z" fill="black"/>
<path d="M216.915 304.605L209.209 310.075H197.069L204.774 304.605H216.915Z" fill="black"/>
<path d="M193.224 280.772L185.519 286.242H179.748L187.453 280.772H193.224Z" fill="black"/>
<mask id="mask45_205_1106" style="mask-type:luminance" maskUnits="userSpaceOnUse" x="210" y="326" width="14" height="8">
<path d="M223.9 326.614L216.194 332.084C214.737 333.121 212.957 333.721 210.99 333.721L218.695 328.251C220.662 328.251 222.443 327.651 223.9 326.614Z" fill="white"/>
</mask>
<g mask="url(#mask45_205_1106)">
<path d="M223.9 326.614L216.194 332.084C214.737 333.121 212.957 333.721 210.99 333.721L218.695 328.251C220.662 328.251 222.443 327.651 223.9 326.614Z" fill="#9D8528"/>
</g>
<mask id="mask46_205_1106" style="mask-type:luminance" maskUnits="userSpaceOnUse" x="211" y="327" width="14" height="9">
<path d="M224.83 327.943L217.125 333.413C215.442 334.604 213.378 335.301 211.103 335.301L218.809 329.831C221.075 329.831 223.147 329.134 224.83 327.943Z" fill="white"/>
</mask>
<g mask="url(#mask46_205_1106)">
<path d="M224.83 327.943L217.125 333.413C215.442 334.604 213.378 335.301 211.103 335.301L218.809 329.831C221.075 329.831 223.147 329.134 224.83 327.943Z" fill="black"/>
</g>
<mask id="mask47_205_1106" style="mask-type:luminance" maskUnits="userSpaceOnUse" x="174" y="280" width="14" height="8">
<path d="M174.551 287.879L182.257 282.409C183.714 281.38 185.494 280.772 187.461 280.772L179.756 286.242C177.789 286.242 176.008 286.842 174.551 287.879Z" fill="white"/>
</mask>
<g mask="url(#mask47_205_1106)">
<path d="M187.453 280.772L179.748 286.242C177.781 286.242 176 286.842 174.544 287.879L182.249 282.409C183.706 281.38 185.486 280.772 187.453 280.772Z" fill="black"/>
</g>
<path d="M218.695 328.251L210.99 333.721H198.849L206.546 328.251H218.695Z" fill="#998227"/>
<path d="M218.809 329.831L211.103 335.301H200.5L208.206 329.831H218.809Z" fill="black"/>
<mask id="mask48_205_1106" style="mask-type:luminance" maskUnits="userSpaceOnUse" x="170" y="282" width="13" height="15">
<path d="M174.551 287.879L182.257 282.409C179.723 284.208 178.194 287.32 178.453 290.845L170.747 296.315C170.48 292.79 172.018 289.678 174.551 287.879Z" fill="white"/>
</mask>
<g mask="url(#mask48_205_1106)">
<path d="M178.453 290.845L170.747 296.315C170.48 292.79 172.018 289.678 174.551 287.879L182.257 282.409C179.723 284.208 178.194 287.32 178.453 290.845Z" fill="#9D8528"/>
</g>
<mask id="mask49_205_1106" style="mask-type:luminance" maskUnits="userSpaceOnUse" x="169" y="281" width="13" height="16">
<path d="M173.613 286.558L181.318 281.088C178.388 283.171 176.615 286.761 176.915 290.845L169.21 296.315C168.902 292.239 170.675 288.641 173.613 286.558Z" fill="white"/>
</mask>
<g mask="url(#mask49_205_1106)">
<path d="M176.915 290.845L169.21 296.315C168.902 292.239 170.675 288.641 173.613 286.558L181.318 281.088C178.388 283.171 176.615 286.761 176.915 290.845Z" fill="black"/>
</g>
<path d="M207.582 342.003L199.877 347.473L198.849 333.721L206.546 328.251L207.582 342.003Z" fill="black"/>
<path d="M179.481 304.605L171.775 310.075L170.747 296.315L178.453 290.845L179.481 304.605Z" fill="#998227"/>
<path d="M177.829 303.025L170.124 308.495L169.21 296.315L176.915 290.845L177.829 303.025Z" fill="black"/>
<mask id="mask50_205_1106" style="mask-type:luminance" maskUnits="userSpaceOnUse" x="196" y="342" width="12" height="14">
<path d="M203.778 350.438L196.073 355.908C198.606 354.109 200.136 351.006 199.869 347.473L207.574 342.003C207.841 345.536 206.312 348.64 203.778 350.438Z" fill="white"/>
</mask>
<g mask="url(#mask50_205_1106)">
<path d="M203.778 350.438L196.073 355.908C198.606 354.109 200.136 351.006 199.869 347.473L207.574 342.003C207.841 345.536 206.312 348.64 203.778 350.438Z" fill="black"/>
</g>
<path d="M179.481 304.605L171.775 310.075H159.635L167.34 304.605H179.481Z" fill="black"/>
<mask id="mask51_205_1106" style="mask-type:luminance" maskUnits="userSpaceOnUse" x="190" y="350" width="14" height="8">
<path d="M203.778 350.439L196.073 355.909C194.616 356.938 192.835 357.546 190.869 357.546L198.574 352.076C200.541 352.076 202.321 351.476 203.778 350.439Z" fill="white"/>
</mask>
<g mask="url(#mask51_205_1106)">
<path d="M203.778 350.439L196.073 355.909C194.616 356.938 192.835 357.546 190.869 357.546L198.574 352.076C200.541 352.076 202.321 351.476 203.778 350.439Z" fill="#9D8528"/>
</g>
<mask id="mask52_205_1106" style="mask-type:luminance" maskUnits="userSpaceOnUse" x="190" y="351" width="15" height="9">
<path d="M204.717 351.768L197.012 357.237C195.328 358.429 193.264 359.126 190.99 359.126L198.695 353.656C200.962 353.656 203.034 352.959 204.717 351.768Z" fill="white"/>
</mask>
<g mask="url(#mask52_205_1106)">
<path d="M204.717 351.768L197.012 357.237C195.328 358.429 193.264 359.126 190.99 359.126L198.695 353.656C200.962 353.656 203.034 352.959 204.717 351.768Z" fill="black"/>
</g>
<mask id="mask53_205_1106" style="mask-type:luminance" maskUnits="userSpaceOnUse" x="154" y="304" width="14" height="8">
<path d="M154.43 311.703L162.136 306.234C163.592 305.196 165.381 304.597 167.34 304.597L159.635 310.067C157.668 310.067 155.887 310.666 154.43 311.703Z" fill="white"/>
</mask>
<g mask="url(#mask53_205_1106)">
<path d="M167.34 304.604L159.635 310.074C157.668 310.074 155.887 310.674 154.43 311.711L162.136 306.241C163.592 305.204 165.381 304.604 167.34 304.604Z" fill="black"/>
</g>
<path d="M198.574 352.075L190.877 357.537H185.106L192.803 352.075H198.574Z" fill="#998227"/>
<path d="M198.695 353.656L190.99 359.126H185.219L192.924 353.656H198.695Z" fill="black"/>
<path d="M182.289 342.003L174.584 347.473L173.556 333.721L181.253 328.251L182.289 342.003Z" fill="#998227"/>
<path d="M180.751 342.003L173.054 347.473L172.14 335.301L179.837 329.831L180.751 342.003Z" fill="black"/>
<mask id="mask54_205_1106" style="mask-type:luminance" maskUnits="userSpaceOnUse" x="177" y="349" width="16" height="9">
<path d="M185.106 357.537C182.411 357.537 179.885 356.411 177.983 354.588C180.549 352.764 183.115 350.941 185.689 349.118C187.591 350.941 190.116 352.067 192.811 352.067C190.496 353.704 187.809 356.678 185.106 357.537Z" fill="white"/>
</mask>
<g mask="url(#mask54_205_1106)">
<path d="M192.803 352.075L185.098 357.545C179.715 357.545 174.997 353.032 174.584 347.473L182.289 342.003C182.71 347.562 187.421 352.075 192.803 352.075Z" fill="#9D8528"/>
</g>
<mask id="mask55_205_1106" style="mask-type:luminance" maskUnits="userSpaceOnUse" x="177" y="348" width="9" height="7">
<path d="M177.53 354.134C180.096 352.31 182.662 350.487 185.235 348.664C185.381 348.826 185.535 348.972 185.689 349.126C183.123 350.949 180.557 352.772 177.983 354.596C177.829 354.45 177.676 354.296 177.53 354.134Z" fill="white"/>
</mask>
<g mask="url(#mask55_205_1106)">
<path d="M192.803 352.075L185.098 357.545C179.715 357.545 174.997 353.032 174.584 347.473L182.289 342.003C182.71 347.562 187.421 352.075 192.803 352.075Z" fill="#9D8528"/>
</g>
<mask id="mask56_205_1106" style="mask-type:luminance" maskUnits="userSpaceOnUse" x="175" y="345" width="11" height="10">
<path d="M177.53 354.134C176.777 353.323 176.138 352.4 175.652 351.395C178.218 349.571 180.784 347.748 183.358 345.925C183.843 346.93 184.483 347.853 185.235 348.664C182.67 350.487 180.104 352.31 177.53 354.134Z" fill="white"/>
</mask>
<g mask="url(#mask56_205_1106)">
<path d="M192.803 352.075L185.098 357.545C179.715 357.545 174.997 353.032 174.584 347.473L182.289 342.003C182.71 347.562 187.421 352.075 192.803 352.075Z" fill="#9D8528"/>
</g>
<path d="M181.253 328.251L173.556 333.721H161.415L169.112 328.251H181.253Z" fill="#998227"/>
<path d="M179.837 329.831L172.14 335.301H161.529L169.234 329.831H179.837Z" fill="black"/>
<mask id="mask57_205_1106" style="mask-type:luminance" maskUnits="userSpaceOnUse" x="150" y="306" width="13" height="15">
<path d="M154.43 311.704L162.136 306.234C159.602 308.033 158.064 311.144 158.331 314.669L150.626 320.139C150.359 316.614 151.897 313.503 154.43 311.704Z" fill="white"/>
</mask>
<g mask="url(#mask57_205_1106)">
<path d="M158.331 314.669L150.626 320.139C150.359 316.614 151.897 313.503 154.43 311.704L162.136 306.234C159.602 308.033 158.064 311.144 158.331 314.669Z" fill="#9D8528"/>
</g>
<mask id="mask58_205_1106" style="mask-type:luminance" maskUnits="userSpaceOnUse" x="173" y="342" width="20" height="18">
<path d="M192.924 353.656L185.219 359.126C178.995 359.126 173.532 353.899 173.046 347.473L180.751 342.003C181.237 348.429 186.692 353.656 192.924 353.656Z" fill="white"/>
</mask>
<g mask="url(#mask58_205_1106)">
<path d="M192.924 353.656L185.219 359.126C178.995 359.126 173.532 353.899 173.046 347.473L180.751 342.003C181.237 348.429 186.692 353.656 192.924 353.656Z" fill="black"/>
</g>
<mask id="mask59_205_1106" style="mask-type:luminance" maskUnits="userSpaceOnUse" x="149" y="304" width="13" height="17">
<path d="M153.499 310.383L161.205 304.913C158.275 306.995 156.502 310.585 156.802 314.67L149.096 320.139C148.789 316.063 150.561 312.465 153.499 310.383Z" fill="white"/>
</mask>
<g mask="url(#mask59_205_1106)">
<path d="M156.802 314.67L149.096 320.139C148.789 316.063 150.561 312.465 153.499 310.383L161.205 304.913C158.275 306.995 156.502 310.585 156.802 314.67Z" fill="black"/>
</g>
<path d="M158.59 318.178L150.885 323.648L150.626 320.139L158.331 314.669L158.59 318.178Z" fill="#998227"/>
<path d="M157.061 318.178L149.363 323.64L149.096 320.139L156.802 314.669L157.061 318.178Z" fill="black"/>
<mask id="mask60_205_1106" style="mask-type:luminance" maskUnits="userSpaceOnUse" x="150" y="318" width="20" height="16">
<path d="M169.112 328.251L161.407 333.721C156.025 333.721 151.298 329.199 150.885 323.648L158.59 318.178C159.011 323.737 163.73 328.251 169.112 328.251Z" fill="white"/>
</mask>
<g mask="url(#mask60_205_1106)">
<path d="M169.112 328.251L161.407 333.721C156.025 333.721 151.298 329.199 150.885 323.648L158.59 318.178C159.011 323.737 163.73 328.251 169.112 328.251Z" fill="#9D8528"/>
</g>
<path d="M216.801 303.025C223.025 303.025 228.489 308.251 228.974 314.669L229.233 318.17C229.719 324.596 225.041 329.823 218.817 329.823H208.214L209.128 341.995C209.614 348.421 204.936 353.648 198.712 353.648H192.941C186.717 353.648 181.253 348.421 180.768 341.995L179.853 329.823H169.25C163.026 329.823 157.563 324.596 157.077 318.17L156.818 314.669C156.332 308.243 161.011 303.025 167.243 303.025H177.846L176.931 290.845C176.445 284.419 181.124 279.2 187.356 279.2H193.127C199.351 279.2 204.814 284.427 205.3 290.845L206.215 303.025H216.817H216.801ZM227.704 318.178L227.445 314.678C227.032 309.127 222.305 304.605 216.923 304.605H204.782L203.746 290.845C203.333 285.294 198.614 280.772 193.232 280.772H187.461C182.079 280.772 178.04 285.294 178.461 290.845L179.497 304.605H167.356C161.974 304.605 157.927 309.127 158.348 314.678L158.607 318.178C159.028 323.737 163.746 328.251 169.129 328.251H181.269L182.305 342.003C182.726 347.562 187.437 352.076 192.819 352.076H198.59C203.973 352.076 208.011 347.562 207.59 342.003L206.554 328.251H218.695C224.078 328.251 228.125 323.729 227.704 318.178Z" fill="black"/>
<path d="M193.224 280.772C198.606 280.772 203.325 285.294 203.738 290.845L204.774 304.605H216.915C222.297 304.605 227.024 309.127 227.437 314.678L227.696 318.178C228.116 323.737 224.07 328.251 218.687 328.251H206.546L207.582 342.003C208.003 347.562 203.964 352.075 198.582 352.075H192.811C187.429 352.075 182.71 347.562 182.297 342.003L181.261 328.251H169.121C163.738 328.251 159.011 323.729 158.599 318.178L158.34 314.678C157.927 309.127 161.966 304.605 167.348 304.605H179.489L178.453 290.845C178.04 285.294 182.071 280.772 187.453 280.772H193.224Z" fill="#F8CD3C"/>
<mask id="mask61_205_1106" style="mask-type:luminance" maskUnits="userSpaceOnUse" x="149" y="318" width="21" height="18">
<path d="M169.234 329.831L161.529 335.301C155.304 335.301 149.841 330.074 149.355 323.648L157.061 318.178C157.546 324.604 163.002 329.831 169.234 329.831Z" fill="white"/>
</mask>
<g mask="url(#mask61_205_1106)">
<path d="M169.234 329.831L161.529 335.301C155.304 335.301 149.841 330.074 149.355 323.648L157.061 318.178C157.546 324.604 163.002 329.831 169.234 329.831Z" fill="black"/>
</g>
<path d="M285.453 153.141L285.356 153.344H280.605L280.702 153.174L285.453 153.141Z" fill="#666666"/>
<path d="M285.356 153.344L236.202 253.941H226.19L280.605 153.344H285.356Z" fill="#8DA8A0"/>
<path d="M273.911 153.344L221.471 253.941H183.139L239.432 153.344H273.911Z" fill="#8DA8A0"/>
<path d="M274.089 153.011L273.911 153.343H239.432L274.089 153.011Z" fill="#666666"/>
<path d="M289.856 151.771C302.28 151.771 313.174 162.201 314.138 175.021L318.435 232.272C318.905 238.48 316.995 244.314 313.069 248.706C309.144 253.098 303.664 255.521 297.642 255.521H180.007C167.583 255.521 156.697 245.092 155.733 232.272L151.427 175.021C150.958 168.813 152.868 162.971 156.802 158.578C160.735 154.186 166.199 151.771 172.22 151.771H289.856ZM316.906 232.272L312.608 175.021C311.71 163.052 301.576 153.344 289.978 153.344H285.356L280.702 153.173L273.919 153.344H239.432H172.35C160.752 153.344 152.075 163.052 152.973 175.021L157.271 232.272C158.17 244.241 168.303 253.941 179.902 253.941H297.537C309.136 253.941 317.812 244.241 316.914 232.272" fill="black"/>
<path d="M289.978 153.344C301.576 153.344 311.709 163.052 312.608 175.021L316.906 232.272C317.804 244.241 309.128 253.941 297.529 253.941H179.893C168.295 253.941 158.161 244.241 157.263 232.272L152.965 175.021C152.067 163.052 160.743 153.344 172.342 153.344H239.424L183.131 253.941H221.463L273.911 153.344H280.605L226.182 253.941H236.194L285.348 153.344H289.969H289.978Z" fill="#3A7B6E"/>
<path d="M200.257 305.269C201.399 305.269 202.402 306.226 202.491 307.409L203.77 324.45C203.859 325.634 203.001 326.59 201.86 326.59H185.341C184.199 326.59 183.196 325.634 183.107 324.45L181.828 307.409C181.739 306.226 182.597 305.269 183.738 305.269H200.257ZM202.249 324.45L200.97 307.409C200.945 307.101 200.686 306.858 200.387 306.858H183.867C183.568 306.858 183.349 307.109 183.374 307.409L184.653 324.45C184.677 324.766 184.936 325.01 185.235 325.01H201.755C202.054 325.01 202.281 324.758 202.257 324.45" fill="black"/>
<path d="M200.379 306.858C200.678 306.858 200.945 307.109 200.962 307.409L202.24 324.45C202.265 324.767 202.038 325.01 201.739 325.01H185.219C184.92 325.01 184.661 324.758 184.636 324.45L183.358 307.409C183.333 307.101 183.56 306.858 183.851 306.858H200.371H200.379Z" fill="#E12D71"/>
<path d="M278.768 313.405C285.396 313.405 291.208 318.972 291.718 325.803C292.228 332.635 287.266 338.202 280.629 338.202C273.992 338.202 268.189 332.635 267.679 325.803C267.169 318.972 272.139 313.405 278.768 313.405Z" fill="#E12D71"/>
<path d="M278.646 311.825C286.117 311.825 292.673 318.097 293.247 325.804C293.822 333.51 288.213 339.782 280.742 339.782C273.272 339.782 266.724 333.518 266.141 325.804C265.558 318.089 271.176 311.825 278.638 311.825H278.646ZM280.629 338.202C287.258 338.202 292.228 332.635 291.718 325.804C291.208 318.972 285.405 313.405 278.768 313.405C272.131 313.405 267.169 318.972 267.679 325.804C268.189 332.643 274 338.202 280.629 338.202Z" fill="black"/>
<path d="M305.388 293.155C312.017 293.155 317.82 298.714 318.338 305.545C318.856 312.376 313.879 317.943 307.25 317.943C300.621 317.943 294.818 312.384 294.3 305.545C293.782 298.705 298.759 293.155 305.388 293.155Z" fill="#E12D71"/>
<path d="M305.267 291.566C312.737 291.566 319.285 297.838 319.868 305.545C320.451 313.251 314.842 319.532 307.371 319.532C299.901 319.532 293.353 313.259 292.77 305.545C292.195 297.838 297.796 291.566 305.267 291.566ZM307.25 317.943C313.879 317.943 318.848 312.384 318.338 305.545C317.828 298.705 312.017 293.154 305.388 293.154C298.759 293.154 293.79 298.714 294.3 305.545C294.81 312.376 300.621 317.943 307.25 317.943Z" fill="black"/>
<path d="M220.33 416.442L220.006 416.718L172.002 417.844L172.326 417.568L220.33 416.442Z" fill="#28584E"/>
<path d="M172.326 417.569L172.002 417.844L171.751 413.582L172.075 413.306L172.326 417.569Z" fill="#28584E"/>
<path d="M220.087 412.18L220.33 416.442L172.326 417.569L172.075 413.306L220.087 412.18Z" fill="#39796C"/>
<path d="M220.338 399.295L220.006 399.57L172.002 400.697L172.326 400.421L220.338 399.295Z" fill="#28584E"/>
<path d="M172.326 400.421L172.002 400.697L171.751 396.434L172.075 396.159L172.326 400.421Z" fill="#28584E"/>
<path d="M220.087 395.032L220.338 399.295L172.326 400.421L172.075 396.159L220.087 395.032Z" fill="#39796C"/>
<path d="M220.338 382.148L220.006 382.423L172.002 383.55L172.326 383.274L220.338 382.148Z" fill="#28584E"/>
<path d="M172.326 383.274L172.002 383.55L171.751 379.287L172.075 379.012L172.326 383.274Z" fill="#28584E"/>
<path d="M220.087 377.893L220.338 382.148L172.326 383.274L172.075 379.012L220.087 377.893Z" fill="#39796C"/>
<path d="M254.535 205.83C249.007 198.1 227.679 199.177 223.398 205.83C222.685 206.933 222.418 208.253 222.507 209.672L255.87 209.153C255.676 207.962 255.255 206.835 254.535 205.839V205.83Z" fill="white" stroke="#1D1D1B" stroke-width="2" stroke-miterlimit="10"/>
<path d="M222.507 209.672C222.953 220.077 232.787 234.404 241.973 233.067C250.026 231.892 256.971 218.78 255.87 208.918L222.507 209.672Z" fill="#E71D73" stroke="#1D1D1B" stroke-width="2" stroke-miterlimit="10"/>
<path d="M193.467 182.687C193.467 182.687 215.943 174.891 226.522 192.605C214.624 190.482 209.994 192.605 209.994 192.605" stroke="#1D1D1B" stroke-width="3" stroke-miterlimit="10"/>
<path d="M277.4 182.687C277.4 182.687 257.999 174.891 248.869 192.605C259.14 190.482 263.13 192.605 263.13 192.605" stroke="#1D1D1B" stroke-width="3" stroke-miterlimit="10"/>
</svg>
