<svg width="481" height="631" viewBox="0 0 481 631" fill="none" xmlns="http://www.w3.org/2000/svg">
<mask id="mask0_205_29" style="mask-type:luminance" maskUnits="userSpaceOnUse" x="323" y="133" width="36" height="31">
<path d="M358.791 153.919L346.019 163.522C345.024 152.047 335.141 142.776 323.98 142.866L336.752 133.263C347.913 133.174 357.796 142.436 358.791 153.919Z" fill="white"/>
</mask>
<g mask="url(#mask0_205_29)">
<path d="M358.791 153.919L346.019 163.522C345.024 152.047 335.141 142.776 323.98 142.866L336.752 133.263C347.913 133.174 357.796 142.436 358.791 153.919Z" fill="black"/>
</g>
<path d="M336.744 133.271L323.98 142.874L160.484 144.195L173.248 134.592L336.744 133.271Z" fill="black"/>
<path d="M381.786 418.841L369.014 428.443L346.019 163.53L358.791 153.919L381.786 418.841Z" fill="black"/>
<mask id="mask1_205_29" style="mask-type:luminance" maskUnits="userSpaceOnUse" x="149" y="134" width="25" height="14">
<path d="M149.461 147.874L162.233 138.271C165.268 135.986 169.056 134.633 173.248 134.6L160.476 144.203C156.284 144.235 152.496 145.589 149.461 147.874Z" fill="white"/>
</mask>
<g mask="url(#mask1_205_29)">
<path d="M173.248 134.592L160.476 144.195C156.284 144.227 152.496 145.58 149.461 147.865L162.233 138.263C165.268 135.978 169.056 134.624 173.248 134.592Z" fill="black"/>
</g>
<mask id="mask2_205_29" style="mask-type:luminance" maskUnits="userSpaceOnUse" x="361" y="418" width="21" height="28">
<path d="M374.388 436.15L361.616 445.753C366.658 441.96 369.637 435.607 369.014 428.444L381.786 418.841C382.409 426.004 379.422 432.358 374.388 436.15Z" fill="white"/>
</mask>
<g mask="url(#mask2_205_29)">
<path d="M374.388 436.15L361.616 445.753C366.658 441.96 369.637 435.607 369.014 428.444L381.786 418.841C382.409 426.004 379.422 432.358 374.388 436.15Z" fill="black"/>
</g>
<mask id="mask3_205_29" style="mask-type:luminance" maskUnits="userSpaceOnUse" x="141" y="138" width="22" height="28">
<path d="M149.461 147.874L162.233 138.271C157.19 142.063 154.212 148.417 154.835 155.58L142.063 165.183C141.44 158.019 144.426 151.666 149.461 147.874Z" fill="white"/>
</mask>
<g mask="url(#mask3_205_29)">
<path d="M154.835 155.572L142.063 165.175C141.44 158.011 144.426 151.658 149.461 147.865L162.233 138.263C157.19 142.055 154.212 148.408 154.835 155.572Z" fill="#147477"/>
</g>
<mask id="mask4_205_29" style="mask-type:luminance" maskUnits="userSpaceOnUse" x="140" y="136" width="22" height="30">
<path d="M148.489 146.577L161.261 136.975C155.839 141.051 152.633 147.89 153.297 155.588L140.525 165.191C139.853 157.493 143.066 150.653 148.489 146.577Z" fill="white"/>
</mask>
<g mask="url(#mask4_205_29)">
<path d="M153.297 155.588L140.525 165.191C139.853 157.493 143.066 150.653 148.489 146.577L161.261 136.975C155.839 141.051 152.633 147.89 153.297 155.588Z" fill="black"/>
</g>
<mask id="mask5_205_29" style="mask-type:luminance" maskUnits="userSpaceOnUse" x="350" y="436" width="25" height="14">
<path d="M374.388 436.15L361.616 445.753C358.573 448.038 354.785 449.391 350.592 449.424L363.364 439.821C367.565 439.788 371.353 438.435 374.388 436.15Z" fill="white"/>
</mask>
<g mask="url(#mask5_205_29)">
<path d="M374.388 436.15L361.616 445.753C358.573 448.038 354.785 449.391 350.592 449.424L363.364 439.821C367.565 439.788 371.353 438.435 374.388 436.15Z" fill="#147477"/>
</g>
<mask id="mask6_205_29" style="mask-type:luminance" maskUnits="userSpaceOnUse" x="350" y="437" width="26" height="15">
<path d="M375.351 437.455L362.579 447.057C359.309 449.513 355.238 450.971 350.722 451.004L363.494 441.401C368.01 441.361 372.081 439.91 375.351 437.455Z" fill="white"/>
</mask>
<g mask="url(#mask6_205_29)">
<path d="M375.351 437.455L362.579 447.057C359.309 449.513 355.238 450.971 350.722 451.004L363.494 441.401C368.01 441.361 372.081 439.91 375.351 437.455Z" fill="black"/>
</g>
<path d="M363.356 439.821L350.592 449.424L187.097 450.752L199.861 441.15L363.356 439.821Z" fill="#137174"/>
<path d="M363.494 441.401L350.722 451.004L187.234 452.333L199.998 442.73L363.494 441.401Z" fill="black"/>
<path d="M177.829 420.494L165.057 430.097L142.063 165.175L154.835 155.572L177.829 420.494Z" fill="#137174"/>
<path d="M176.292 420.51L163.519 430.113L140.525 165.191L153.297 155.588L176.292 420.51Z" fill="black"/>
<mask id="mask7_205_29" style="mask-type:luminance" maskUnits="userSpaceOnUse" x="174" y="436" width="26" height="15">
<path d="M174.155 446.352C174.333 446.214 174.576 446.036 174.754 445.898C174.94 445.753 175.199 445.566 175.385 445.42C175.571 445.274 175.846 445.072 176.041 444.926C176.235 444.78 176.51 444.578 176.712 444.424C176.915 444.27 177.182 444.075 177.384 443.921C177.587 443.767 177.846 443.573 178.04 443.427C178.234 443.281 178.485 443.095 178.671 442.949C178.849 442.811 179.092 442.633 179.27 442.503C179.537 442.3 179.901 442.033 180.169 441.83C180.452 441.62 180.832 441.328 181.115 441.117C181.399 440.907 181.803 440.599 182.103 440.38C182.402 440.161 182.807 439.853 183.107 439.626C183.406 439.399 183.811 439.1 184.11 438.873C184.41 438.646 184.798 438.354 185.098 438.135C185.397 437.916 185.761 437.633 186.045 437.422C186.312 437.219 186.668 436.952 186.935 436.75C190.634 439.537 195.142 441.19 199.877 441.15L187.105 450.752C182.37 450.793 177.862 449.14 174.163 446.352H174.155Z" fill="white"/>
</mask>
<g mask="url(#mask7_205_29)">
<path d="M199.861 441.15L187.089 450.752C175.935 450.841 166.053 441.579 165.057 430.096L177.829 420.494C178.825 431.968 188.708 441.239 199.861 441.15Z" fill="#147477"/>
</g>
<mask id="mask8_205_29" style="mask-type:luminance" maskUnits="userSpaceOnUse" x="165" y="420" width="22" height="27">
<path d="M174.155 446.352C169.153 442.576 165.632 436.701 165.065 430.105L177.837 420.502C178.412 427.106 181.925 432.973 186.927 436.75C182.67 439.951 178.412 443.151 174.155 446.352Z" fill="white"/>
</mask>
<g mask="url(#mask8_205_29)">
<path d="M199.861 441.15L187.089 450.752C175.935 450.841 166.053 441.579 165.057 430.096L177.829 420.494C178.825 431.968 188.708 441.239 199.861 441.15Z" fill="#147477"/>
</g>
<path d="M336.744 133.271C347.905 133.182 357.788 142.444 358.783 153.927L381.778 418.849C382.773 430.323 374.51 439.74 363.348 439.829L199.853 441.15C188.7 441.239 178.817 431.977 177.821 420.494L154.827 155.572C153.831 144.097 162.095 134.681 173.248 134.592L336.744 133.271Z" fill="#1DB1B7"/>
<path d="M336.606 131.699C348.609 131.602 359.245 141.569 360.313 153.911L383.307 418.832C384.376 431.182 375.489 441.304 363.486 441.401L199.99 442.722C187.987 442.819 177.352 432.852 176.284 420.502L153.289 155.58C152.221 143.239 161.108 133.109 173.111 133.012L336.606 131.691V131.699ZM381.786 418.841L358.791 153.919C357.796 142.444 347.913 133.174 336.752 133.263L173.256 134.584C162.103 134.673 153.839 144.089 154.835 155.564L177.829 420.486C178.825 431.96 188.708 441.231 199.861 441.134L363.356 439.813C374.518 439.723 382.781 430.307 381.786 418.832" fill="black"/>
<mask id="mask9_205_29" style="mask-type:luminance" maskUnits="userSpaceOnUse" x="163" y="420" width="37" height="33">
<path d="M199.998 442.73L187.226 452.332C175.223 452.43 164.588 442.462 163.52 430.113L176.292 420.51C177.36 432.86 187.995 442.827 199.998 442.73Z" fill="white"/>
</mask>
<g mask="url(#mask9_205_29)">
<path d="M199.998 442.73L187.226 452.332C175.223 452.43 164.588 442.462 163.52 430.113L176.292 420.51C177.36 432.86 187.995 442.827 199.998 442.73Z" fill="black"/>
</g>
<mask id="mask10_205_29" style="mask-type:luminance" maskUnits="userSpaceOnUse" x="324" y="152" width="28" height="26">
<path d="M351.474 173.813L346.343 177.46C345.477 165.945 335.699 156.585 324.538 156.585L329.67 152.938C340.831 152.938 350.608 162.306 351.474 173.813Z" fill="white"/>
</mask>
<g mask="url(#mask10_205_29)">
<path d="M351.474 173.813L346.343 177.46C345.477 165.945 335.699 156.585 324.538 156.585L329.67 152.938C340.831 152.938 350.608 162.306 351.474 173.813Z" fill="black"/>
</g>
<path d="M357.124 249.071L351.984 252.717L346.335 177.46L351.474 173.813L357.124 249.071Z" fill="black"/>
<mask id="mask11_205_29" style="mask-type:luminance" maskUnits="userSpaceOnUse" x="344" y="249" width="14" height="22">
<path d="M349.24 266.566L344.109 270.213C349.362 266.485 352.543 260.035 351.992 252.717L357.124 249.071C357.674 256.388 354.493 262.831 349.24 266.566Z" fill="white"/>
</mask>
<g mask="url(#mask11_205_29)">
<path d="M349.24 266.566L344.109 270.213C349.362 266.485 352.543 260.035 351.992 252.717L357.124 249.071C357.674 256.388 354.493 262.831 349.24 266.566Z" fill="black"/>
</g>
<mask id="mask12_205_29" style="mask-type:luminance" maskUnits="userSpaceOnUse" x="333" y="266" width="17" height="8">
<path d="M349.241 266.566L344.109 270.213C341.09 272.352 337.391 273.6 333.328 273.6L338.46 269.954C342.531 269.954 346.23 268.706 349.241 266.566Z" fill="white"/>
</mask>
<g mask="url(#mask12_205_29)">
<path d="M349.241 266.566L344.109 270.213C341.09 272.352 337.391 273.6 333.328 273.6L338.46 269.954C342.531 269.954 346.23 268.706 349.241 266.566Z" fill="#9D8528"/>
</g>
<mask id="mask13_205_29" style="mask-type:luminance" maskUnits="userSpaceOnUse" x="333" y="267" width="18" height="9">
<path d="M350.179 267.887L345.048 271.534C341.802 273.835 337.82 275.18 333.441 275.18L338.573 271.534C342.952 271.534 346.934 270.197 350.179 267.887Z" fill="white"/>
</mask>
<g mask="url(#mask13_205_29)">
<path d="M350.179 267.887L345.048 271.534C341.802 273.835 337.82 275.18 333.441 275.18L338.573 271.534C342.952 271.534 346.934 270.197 350.179 267.887Z" fill="black"/>
</g>
<path d="M329.67 152.93L324.538 156.577H189.145L194.284 152.93H329.67Z" fill="black"/>
<mask id="mask14_205_29" style="mask-type:luminance" maskUnits="userSpaceOnUse" x="178" y="152" width="17" height="8">
<path d="M178.364 159.964L183.495 156.317C186.514 154.178 190.213 152.93 194.276 152.93L189.145 156.577C185.073 156.577 181.374 157.825 178.364 159.964Z" fill="white"/>
</mask>
<g mask="url(#mask14_205_29)">
<path d="M194.284 152.93L189.153 156.577C185.082 156.577 181.383 157.825 178.372 159.964L183.503 156.317C186.522 154.178 190.221 152.93 194.284 152.93Z" fill="black"/>
</g>
<mask id="mask15_205_29" style="mask-type:luminance" maskUnits="userSpaceOnUse" x="170" y="156" width="14" height="22">
<path d="M178.364 159.964L183.495 156.317C178.242 160.045 175.061 166.495 175.612 173.813L170.48 177.46C169.93 170.142 173.111 163.7 178.364 159.964Z" fill="white"/>
</mask>
<g mask="url(#mask15_205_29)">
<path d="M175.612 173.813L170.48 177.46C169.93 170.142 173.111 163.7 178.364 159.964L183.495 156.317C178.242 160.045 175.061 166.495 175.612 173.813Z" fill="#9D8528"/>
</g>
<mask id="mask16_205_29" style="mask-type:luminance" maskUnits="userSpaceOnUse" x="168" y="154" width="15" height="24">
<path d="M177.433 158.635L182.564 154.989C176.915 159 173.491 165.937 174.082 173.813L168.95 177.46C168.36 169.591 171.783 162.655 177.433 158.635Z" fill="white"/>
</mask>
<g mask="url(#mask16_205_29)">
<path d="M174.082 173.813L168.95 177.46C168.36 169.591 171.783 162.655 177.433 158.635L182.564 154.989C176.915 159 173.491 165.937 174.082 173.813Z" fill="black"/>
</g>
<path d="M338.452 269.954L333.32 273.6H197.935L203.066 269.954H338.452Z" fill="#998227"/>
<path d="M338.573 271.526L333.441 275.172H198.048L203.187 271.526H338.573Z" fill="black"/>
<mask id="mask17_205_29" style="mask-type:luminance" maskUnits="userSpaceOnUse" x="189" y="268" width="15" height="6">
<path d="M197.934 273.6C195.142 273.6 192.439 273.017 189.946 271.955C191.654 270.74 193.369 269.524 195.077 268.309C197.578 269.37 200.282 269.954 203.066 269.954C201.528 271.048 199.472 272.506 197.934 273.6Z" fill="white"/>
</mask>
<g mask="url(#mask17_205_29)">
<path d="M203.066 269.953L197.934 273.6C186.773 273.6 176.996 264.232 176.13 252.725L181.261 249.079C182.127 260.594 191.905 269.953 203.066 269.953Z" fill="#9D8528"/>
</g>
<path d="M181.261 249.071L176.13 252.717L170.48 177.46L175.612 173.813L181.261 249.071Z" fill="#998227"/>
<path d="M179.731 249.071L174.6 252.717L168.95 177.46L174.082 173.813L179.731 249.071Z" fill="black"/>
<mask id="mask18_205_29" style="mask-type:luminance" maskUnits="userSpaceOnUse" x="186" y="266" width="10" height="6">
<path d="M186.805 270.318C188.513 269.103 190.229 267.887 191.937 266.672C192.941 267.304 193.985 267.855 195.077 268.309C193.37 269.524 191.654 270.74 189.946 271.955C188.861 271.494 187.809 270.942 186.805 270.318Z" fill="white"/>
</mask>
<g mask="url(#mask18_205_29)">
<path d="M203.066 269.954L197.934 273.6C186.773 273.6 176.996 264.233 176.13 252.726L181.261 249.079C182.127 260.594 191.905 269.954 203.066 269.954Z" fill="#9D8528"/>
</g>
<mask id="mask19_205_29" style="mask-type:luminance" maskUnits="userSpaceOnUse" x="186" y="266" width="6" height="5">
<path d="M186.806 270.318C186.66 270.221 186.506 270.132 186.36 270.035C188.068 268.819 189.784 267.604 191.492 266.388C191.638 266.485 191.791 266.583 191.937 266.672C190.229 267.887 188.513 269.103 186.806 270.318Z" fill="white"/>
</mask>
<g mask="url(#mask19_205_29)">
<path d="M203.066 269.954L197.934 273.6C186.773 273.6 176.996 264.233 176.13 252.726L181.261 249.079C182.127 260.594 191.905 269.954 203.066 269.954Z" fill="#9D8528"/>
</g>
<mask id="mask20_205_29" style="mask-type:luminance" maskUnits="userSpaceOnUse" x="176" y="249" width="16" height="22">
<path d="M186.36 270.027C180.695 266.275 176.672 259.913 176.13 252.717L181.261 249.071C181.803 256.267 185.826 262.62 191.492 266.38C189.784 267.596 188.068 268.811 186.36 270.027Z" fill="white"/>
</mask>
<g mask="url(#mask20_205_29)">
<path d="M203.066 269.954L197.934 273.6C186.773 273.6 176.996 264.233 176.13 252.726L181.261 249.079C182.127 260.594 191.905 269.954 203.066 269.954Z" fill="#9D8528"/>
</g>
<path d="M329.67 152.93C340.831 152.93 350.608 162.298 351.474 173.805L357.124 249.071C357.99 260.586 349.613 269.946 338.46 269.946H203.074C191.913 269.946 182.135 260.578 181.269 249.071L175.62 173.805C174.754 162.29 183.131 152.93 194.284 152.93H329.67Z" fill="#F8CD3C"/>
<mask id="mask21_205_29" style="mask-type:luminance" maskUnits="userSpaceOnUse" x="174" y="249" width="30" height="27">
<path d="M203.187 271.526L198.056 275.172C186.061 275.172 175.539 265.1 174.608 252.717L179.74 249.071C180.67 261.453 191.192 271.526 203.187 271.526Z" fill="white"/>
</mask>
<g mask="url(#mask21_205_29)">
<path d="M203.187 271.526L198.056 275.172C186.061 275.172 175.539 265.1 174.608 252.717L179.74 249.071C180.67 261.453 191.192 271.526 203.187 271.526Z" fill="black"/>
</g>
<path d="M353.004 173.813L358.662 249.079C359.592 261.461 350.584 271.534 338.573 271.534H203.187C191.192 271.534 180.67 261.461 179.74 249.079L174.09 173.813C173.159 161.431 182.168 151.35 194.171 151.35H329.556C341.559 151.35 352.081 161.431 353.004 173.813ZM357.124 249.071L351.474 173.805C350.608 162.29 340.831 152.93 329.67 152.93H194.284C183.123 152.93 174.754 162.298 175.62 173.805L181.269 249.071C182.135 260.586 191.913 269.946 203.074 269.946H338.46C349.621 269.946 357.99 260.578 357.124 249.071Z" fill="black"/>
<mask id="mask22_205_29" style="mask-type:luminance" maskUnits="userSpaceOnUse" x="352" y="379" width="15" height="13">
<path d="M366.399 388.258L361.268 391.904C360.904 387.083 356.808 383.152 352.13 383.152L357.261 379.506C361.94 379.506 366.035 383.428 366.399 388.258Z" fill="white"/>
</mask>
<g mask="url(#mask22_205_29)">
<path d="M366.399 388.258L361.268 391.904C360.904 387.083 356.808 383.152 352.13 383.152L357.261 379.506C361.94 379.506 366.035 383.428 366.399 388.258Z" fill="black"/>
</g>
<path d="M368.22 412.512L363.089 416.158L361.268 391.896L366.399 388.258L368.22 412.512Z" fill="black"/>
<mask id="mask23_205_29" style="mask-type:luminance" maskUnits="userSpaceOnUse" x="359" y="412" width="10" height="12">
<path d="M364.918 419.845L359.787 423.492C361.988 421.928 363.316 419.229 363.089 416.166L368.22 412.52C368.447 415.583 367.12 418.289 364.918 419.845Z" fill="white"/>
</mask>
<g mask="url(#mask23_205_29)">
<path d="M364.918 419.845L359.787 423.492C361.988 421.928 363.316 419.229 363.089 416.166L368.22 412.52C368.447 415.583 367.12 418.289 364.918 419.845Z" fill="black"/>
</g>
<mask id="mask24_205_29" style="mask-type:luminance" maskUnits="userSpaceOnUse" x="355" y="419" width="10" height="6">
<path d="M364.918 419.845L359.787 423.492C358.524 424.391 356.97 424.91 355.271 424.91L360.402 421.263C362.11 421.263 363.656 420.745 364.918 419.845Z" fill="white"/>
</mask>
<g mask="url(#mask24_205_29)">
<path d="M364.918 419.845L359.787 423.492C358.524 424.391 356.97 424.91 355.271 424.91L360.402 421.263C362.11 421.263 363.656 420.745 364.918 419.845Z" fill="#9D8528"/>
</g>
<mask id="mask25_205_29" style="mask-type:luminance" maskUnits="userSpaceOnUse" x="355" y="421" width="11" height="6">
<path d="M365.849 421.174L360.718 424.821C359.228 425.882 357.399 426.498 355.384 426.498L360.515 422.852C362.523 422.852 364.352 422.236 365.849 421.174Z" fill="white"/>
</mask>
<g mask="url(#mask25_205_29)">
<path d="M365.849 421.174L360.718 424.821C359.228 425.882 357.399 426.498 355.384 426.498L360.515 422.852C362.523 422.852 364.352 422.236 365.849 421.174Z" fill="black"/>
</g>
<path d="M357.27 379.506L352.13 383.152H277.869L283.009 379.506H357.27Z" fill="black"/>
<mask id="mask26_205_29" style="mask-type:luminance" maskUnits="userSpaceOnUse" x="273" y="379" width="11" height="6">
<path d="M273.353 384.571L278.484 380.924C279.747 380.024 281.301 379.506 283.001 379.506L277.869 383.152C276.161 383.152 274.615 383.671 273.353 384.571Z" fill="white"/>
</mask>
<g mask="url(#mask26_205_29)">
<path d="M283.009 379.506L277.877 383.152C276.169 383.152 274.623 383.671 273.361 384.571L278.492 380.924C279.755 380.024 281.309 379.506 283.009 379.506Z" fill="black"/>
</g>
<mask id="mask27_205_29" style="mask-type:luminance" maskUnits="userSpaceOnUse" x="270" y="380" width="9" height="12">
<path d="M273.353 384.57L278.484 380.924C276.283 382.488 274.955 385.186 275.182 388.249L270.05 391.896C269.824 388.833 271.151 386.126 273.353 384.57Z" fill="white"/>
</mask>
<g mask="url(#mask27_205_29)">
<path d="M275.182 388.258L270.05 391.904C269.824 388.841 271.151 386.135 273.353 384.579L278.484 380.932C276.283 382.496 274.955 385.195 275.182 388.258Z" fill="#9D8528"/>
</g>
<mask id="mask28_205_29" style="mask-type:luminance" maskUnits="userSpaceOnUse" x="268" y="379" width="10" height="13">
<path d="M272.422 383.241L277.553 379.595C274.955 381.442 273.377 384.635 273.652 388.249L268.521 391.896C268.246 388.274 269.824 385.081 272.422 383.241Z" fill="white"/>
</mask>
<g mask="url(#mask28_205_29)">
<path d="M273.652 388.258L268.521 391.904C268.246 388.282 269.824 385.089 272.422 383.25L277.553 379.603C274.955 381.451 273.377 384.643 273.652 388.258Z" fill="black"/>
</g>
<path d="M360.402 421.263L355.27 424.91H281.001L286.141 421.263H360.402Z" fill="#998227"/>
<path d="M360.523 422.844L355.384 426.49H281.123L286.262 422.844H360.523Z" fill="black"/>
<path d="M277.003 412.512L271.872 416.158L270.051 391.896L275.182 388.258L277.003 412.512Z" fill="#998227"/>
<mask id="mask29_205_29" style="mask-type:luminance" maskUnits="userSpaceOnUse" x="274" y="418" width="13" height="7">
<path d="M281.002 424.91C278.662 424.91 276.469 423.929 274.818 422.349C276.526 421.134 278.242 419.918 279.949 418.703C281.6 420.283 283.794 421.263 286.133 421.263C284.595 422.357 282.798 424.335 281.002 424.91Z" fill="white"/>
</mask>
<g mask="url(#mask29_205_29)">
<path d="M286.141 421.264L281.01 424.91C276.332 424.91 272.236 420.988 271.872 416.158L277.003 412.512C277.368 417.333 281.463 421.264 286.141 421.264Z" fill="#9D8528"/>
</g>
<path d="M275.473 412.512L270.342 416.158L268.521 391.896L273.652 388.258L275.473 412.512Z" fill="black"/>
<mask id="mask30_205_29" style="mask-type:luminance" maskUnits="userSpaceOnUse" x="271" y="412" width="9" height="11">
<path d="M274.818 422.341C273.167 420.761 272.05 418.573 271.872 416.158L277.003 412.512C277.181 414.927 278.298 417.115 279.949 418.695C278.241 419.91 276.526 421.126 274.818 422.341Z" fill="white"/>
</mask>
<g mask="url(#mask30_205_29)">
<path d="M286.141 421.264L281.01 424.91C276.331 424.91 272.236 420.988 271.872 416.158L277.003 412.512C277.367 417.333 281.463 421.264 286.141 421.264Z" fill="#9D8528"/>
</g>
<path d="M357.27 379.506C361.948 379.506 366.043 383.428 366.407 388.258L368.229 412.52C368.593 417.341 365.08 421.272 360.41 421.272H286.149C281.471 421.272 277.375 417.349 277.011 412.52L275.19 388.258C274.826 383.436 278.339 379.506 283.009 379.506H357.27Z" fill="#F8CD3C"/>
<path d="M357.148 377.917C362.668 377.917 367.5 382.553 367.929 388.25L369.75 412.512C370.179 418.208 366.035 422.844 360.515 422.844H286.254C280.734 422.844 275.902 418.208 275.473 412.512L273.652 388.25C273.223 382.553 277.367 377.917 282.887 377.917H357.148ZM368.221 412.512L366.4 388.25C366.035 383.428 361.94 379.498 357.262 379.498H283.001C278.322 379.498 274.818 383.42 275.182 388.25L277.003 412.512C277.367 417.333 281.463 421.255 286.141 421.255H360.402C365.08 421.255 368.585 417.333 368.221 412.512Z" fill="black"/>
<mask id="mask31_205_29" style="mask-type:luminance" maskUnits="userSpaceOnUse" x="270" y="412" width="17" height="15">
<path d="M286.262 422.844L281.131 426.49C275.611 426.49 270.779 421.855 270.35 416.158L275.481 412.512C275.91 418.209 280.75 422.844 286.262 422.844Z" fill="white"/>
</mask>
<g mask="url(#mask31_205_29)">
<path d="M286.262 422.844L281.131 426.49C275.611 426.49 270.779 421.855 270.35 416.158L275.481 412.512C275.91 418.209 280.75 422.844 286.262 422.844Z" fill="black"/>
</g>
<mask id="mask32_205_29" style="mask-type:luminance" maskUnits="userSpaceOnUse" x="340" y="317" width="16" height="20">
<path d="M348.132 331.525L340.427 336.995C344.643 333.494 347.136 328.389 347.468 322.643L355.173 317.173C354.842 322.919 352.341 328.024 348.132 331.525Z" fill="white"/>
</mask>
<g mask="url(#mask32_205_29)">
<path d="M348.132 331.525L340.427 336.995C344.643 333.494 347.136 328.389 347.468 322.643L355.173 317.173C354.842 322.919 352.341 328.024 348.132 331.525Z" fill="black"/>
</g>
<mask id="mask33_205_29" style="mask-type:luminance" maskUnits="userSpaceOnUse" x="313" y="292" width="43" height="31">
<path d="M313.547 301.517L321.252 296.047C324.506 293.738 328.367 292.53 332.438 292.53C333.393 292.53 334.364 292.595 335.335 292.733C340.961 293.511 346.125 296.493 349.88 301.112C353.627 305.731 355.513 311.436 355.181 317.181L347.476 322.651C347.8 316.906 345.922 311.201 342.175 306.582C338.427 301.963 333.255 298.989 327.63 298.203C326.659 298.065 325.688 298 324.733 298C320.661 298 316.801 299.208 313.547 301.517Z" fill="white"/>
</mask>
<g mask="url(#mask33_205_29)">
<path d="M355.173 317.173L347.468 322.643C347.792 316.897 345.914 311.193 342.167 306.574C338.419 301.955 333.247 298.981 327.622 298.194C326.651 298.057 325.68 297.992 324.724 297.992C320.653 297.992 316.793 299.199 313.539 301.509L321.244 296.039C324.498 293.729 328.359 292.522 332.43 292.522C333.385 292.522 334.356 292.587 335.327 292.725C340.953 293.503 346.116 296.485 349.872 301.104C353.619 305.723 355.505 311.428 355.173 317.173Z" fill="black"/>
</g>
<mask id="mask34_205_29" style="mask-type:luminance" maskUnits="userSpaceOnUse" x="312" y="296" width="10" height="7">
<path d="M313.547 301.517L321.252 296.047C320.848 296.331 320.459 296.639 320.071 296.955L312.365 302.425C312.746 302.109 313.142 301.801 313.547 301.517Z" fill="white"/>
</mask>
<g mask="url(#mask34_205_29)">
<path d="M320.071 296.955L312.365 302.425C312.746 302.109 313.142 301.801 313.547 301.517L321.252 296.047C320.848 296.331 320.459 296.639 320.071 296.955Z" fill="#295A4F"/>
</g>
<mask id="mask35_205_29" style="mask-type:luminance" maskUnits="userSpaceOnUse" x="311" y="294" width="10" height="8">
<path d="M312.616 300.188L320.321 294.718C319.884 295.026 319.463 295.35 319.051 295.699L311.345 301.169C311.758 300.828 312.179 300.496 312.616 300.188Z" fill="white"/>
</mask>
<g mask="url(#mask35_205_29)">
<path d="M319.051 295.699L311.345 301.169C311.758 300.828 312.179 300.496 312.616 300.188L320.321 294.718C319.884 295.026 319.463 295.35 319.051 295.699Z" fill="black"/>
</g>
<path d="M325.769 350.171L318.071 355.641L340.426 336.995L348.132 331.525L325.769 350.171Z" fill="black"/>
<mask id="mask36_205_29" style="mask-type:luminance" maskUnits="userSpaceOnUse" x="316" y="350" width="10" height="7">
<path d="M324.595 351.07L316.89 356.54C317.286 356.257 317.683 355.957 318.063 355.641L325.769 350.171C325.388 350.487 325 350.787 324.595 351.07Z" fill="white"/>
</mask>
<g mask="url(#mask36_205_29)">
<path d="M324.595 351.07L316.89 356.54C317.286 356.257 317.683 355.957 318.063 355.641L325.769 350.171C325.388 350.487 325 350.787 324.595 351.07Z" fill="black"/>
</g>
<path d="M297.707 315.585L290.002 321.055L312.365 302.425L320.071 296.955L297.707 315.585Z" fill="#28584E"/>
<path d="M296.687 314.337L288.982 319.807L311.345 301.169L319.051 295.699L296.687 314.337Z" fill="black"/>
<mask id="mask37_205_29" style="mask-type:luminance" maskUnits="userSpaceOnUse" x="294" y="351" width="31" height="10">
<path d="M302.814 359.863C299.998 359.466 297.303 358.526 294.842 357.107C297.408 355.284 299.974 353.461 302.547 351.638C305.008 353.056 307.711 353.996 310.52 354.393C311.491 354.531 312.462 354.595 313.409 354.595C317.48 354.595 321.341 353.38 324.603 351.07L316.898 356.54C313.636 358.858 309.775 360.065 305.704 360.065C304.749 360.065 303.786 360 302.814 359.863Z" fill="white"/>
</mask>
<g mask="url(#mask37_205_29)">
<path d="M324.595 351.07L316.89 356.54C313.628 358.858 309.767 360.065 305.696 360.065C304.741 360.065 303.778 360.001 302.806 359.863C297.173 359.077 292.017 356.103 288.262 351.484C280.524 341.954 281.301 328.299 289.994 321.055L297.699 315.585C289.006 322.83 288.229 336.484 295.967 346.014C299.714 350.633 304.878 353.607 310.512 354.393C311.483 354.531 312.454 354.595 313.401 354.595C317.472 354.595 321.333 353.38 324.595 351.07Z" fill="#295A4F"/>
</g>
<mask id="mask38_205_29" style="mask-type:luminance" maskUnits="userSpaceOnUse" x="289" y="346" width="14" height="12">
<path d="M289.047 352.391C291.613 350.568 294.178 348.745 296.752 346.921C298.452 348.826 300.411 350.414 302.547 351.638C299.982 353.461 297.416 355.284 294.842 357.108C292.713 355.876 290.755 354.296 289.047 352.391Z" fill="white"/>
</mask>
<g mask="url(#mask38_205_29)">
<path d="M324.595 351.07L316.89 356.54C313.628 358.858 309.767 360.065 305.696 360.065C304.741 360.065 303.778 360.001 302.806 359.863C297.173 359.077 292.017 356.103 288.262 351.484C280.524 341.954 281.301 328.299 289.994 321.055L297.699 315.585C289.006 322.83 288.229 336.484 295.967 346.014C299.714 350.633 304.878 353.607 310.512 354.393C311.483 354.531 312.454 354.595 313.401 354.595C317.472 354.595 321.333 353.38 324.595 351.07Z" fill="#295A4F"/>
</g>
<mask id="mask39_205_29" style="mask-type:luminance" maskUnits="userSpaceOnUse" x="287" y="345" width="10" height="8">
<path d="M287.914 351.038C290.479 349.215 293.045 347.392 295.619 345.568C295.732 345.722 295.854 345.868 295.975 346.022C296.226 346.33 296.485 346.638 296.752 346.93C294.186 348.753 291.621 350.576 289.047 352.4C288.78 352.108 288.521 351.8 288.27 351.492C288.148 351.346 288.027 351.192 287.914 351.038Z" fill="white"/>
</mask>
<g mask="url(#mask39_205_29)">
<path d="M324.595 351.07L316.89 356.54C313.628 358.858 309.767 360.065 305.696 360.065C304.741 360.065 303.778 360.001 302.806 359.863C297.173 359.077 292.017 356.103 288.262 351.484C280.524 341.954 281.301 328.299 289.994 321.055L297.699 315.585C289.006 322.83 288.229 336.484 295.967 346.014C299.714 350.633 304.878 353.607 310.512 354.393C311.483 354.531 312.454 354.595 313.401 354.595C317.472 354.595 321.333 353.38 324.595 351.07Z" fill="#295A4F"/>
</g>
<mask id="mask40_205_29" style="mask-type:luminance" maskUnits="userSpaceOnUse" x="282" y="315" width="16" height="37">
<path d="M287.914 351.038C280.556 341.533 281.447 328.194 290.002 321.063L297.707 315.593C289.152 322.724 288.262 336.063 295.619 345.568C293.053 347.392 290.488 349.215 287.914 351.038Z" fill="white"/>
</mask>
<g mask="url(#mask40_205_29)">
<path d="M324.595 351.07L316.89 356.54C313.628 358.858 309.767 360.065 305.696 360.065C304.741 360.065 303.778 360.001 302.806 359.863C297.173 359.077 292.017 356.103 288.262 351.484C280.524 341.954 281.301 328.299 289.994 321.055L297.699 315.585C289.006 322.83 288.229 336.484 295.967 346.014C299.714 350.633 304.878 353.607 310.512 354.393C311.483 354.531 312.454 354.595 313.401 354.595C317.472 354.595 321.333 353.38 324.595 351.07Z" fill="#295A4F"/>
</g>
<path d="M332.43 292.53C333.385 292.53 334.356 292.595 335.327 292.733C340.952 293.511 346.116 296.493 349.872 301.112C353.619 305.731 355.505 311.436 355.173 317.181C354.841 322.927 352.34 328.032 348.132 331.533L325.768 350.171C322.28 353.072 317.974 354.604 313.409 354.604C312.454 354.604 311.491 354.539 310.52 354.401C304.886 353.615 299.731 350.641 295.975 346.022C288.237 336.492 289.014 322.838 297.707 315.593L320.07 296.963C323.551 294.062 327.857 292.538 332.43 292.538V292.53Z" fill="#3A7B6E"/>
<mask id="mask41_205_29" style="mask-type:luminance" maskUnits="userSpaceOnUse" x="281" y="314" width="45" height="48">
<path d="M325.518 352.399L317.812 357.869C314.324 360.349 310.188 361.637 305.825 361.637C304.797 361.637 303.761 361.564 302.717 361.427C296.679 360.592 291.143 357.399 287.121 352.44C278.816 342.221 279.658 327.578 288.982 319.807L296.687 314.337C287.363 322.1 286.522 336.751 294.826 346.97C298.848 351.929 304.385 355.122 310.423 355.957C311.467 356.103 312.503 356.167 313.531 356.167C317.893 356.167 322.021 354.879 325.518 352.399Z" fill="white"/>
</mask>
<g mask="url(#mask41_205_29)">
<path d="M325.518 352.399L317.812 357.869C314.324 360.349 310.188 361.637 305.825 361.637C304.797 361.637 303.761 361.564 302.717 361.427C296.679 360.592 291.143 357.399 287.121 352.44C278.816 342.221 279.658 327.578 288.982 319.807L296.687 314.337C287.363 322.1 286.522 336.751 294.826 346.97C298.848 351.929 304.385 355.122 310.423 355.957C311.467 356.103 312.503 356.167 313.531 356.167C317.893 356.167 322.021 354.879 325.518 352.399Z" fill="black"/>
</g>
<path d="M351.021 300.148C355.036 305.099 357.059 311.225 356.711 317.392C356.363 323.551 353.676 329.029 349.16 332.781L326.796 351.411C323.057 354.531 318.444 356.168 313.539 356.168C312.511 356.168 311.475 356.095 310.431 355.957C304.393 355.122 298.857 351.93 294.834 346.97C286.53 336.752 287.371 322.108 296.695 314.337L319.059 295.699C322.79 292.587 327.42 290.95 332.316 290.95C333.344 290.95 334.38 291.023 335.424 291.169C341.462 292.004 346.999 295.196 351.021 300.148ZM355.173 317.173C355.497 311.428 353.619 305.723 349.872 301.104C346.124 296.485 340.953 293.511 335.327 292.725C334.356 292.587 333.385 292.522 332.43 292.522C327.857 292.522 323.551 294.054 320.07 296.947L297.707 315.577C289.014 322.821 288.237 336.476 295.975 346.006C299.723 350.625 304.886 353.599 310.52 354.385C311.491 354.523 312.462 354.587 313.409 354.587C317.982 354.587 322.288 353.056 325.769 350.155L348.132 331.517C352.349 328.016 354.842 322.911 355.173 317.165" fill="black"/>
<path d="M258.517 325.382L250.811 330.852L250.552 327.351L258.258 321.881L258.517 325.382Z" fill="black"/>
<mask id="mask42_205_29" style="mask-type:luminance" maskUnits="userSpaceOnUse" x="240" y="311" width="19" height="17">
<path d="M258.258 321.881L250.552 327.351C250.14 321.8 245.413 317.278 240.031 317.278L247.736 311.809C253.118 311.809 257.845 316.33 258.258 321.881Z" fill="white"/>
</mask>
<g mask="url(#mask42_205_29)">
<path d="M258.258 321.881L250.552 327.351C250.14 321.8 245.413 317.278 240.031 317.278L247.736 311.809C253.118 311.809 257.845 316.33 258.258 321.881Z" fill="black"/>
</g>
<mask id="mask43_205_29" style="mask-type:luminance" maskUnits="userSpaceOnUse" x="216" y="287" width="19" height="17">
<path d="M234.559 298.057L226.854 303.527C226.441 297.976 221.722 293.454 216.34 293.454L224.045 287.984C229.428 287.984 234.146 292.506 234.559 298.057Z" fill="white"/>
</mask>
<g mask="url(#mask43_205_29)">
<path d="M234.559 298.057L226.854 303.527C226.441 297.976 221.722 293.454 216.34 293.454L224.045 287.984C229.428 287.984 234.146 292.506 234.559 298.057Z" fill="black"/>
</g>
<mask id="mask44_205_29" style="mask-type:luminance" maskUnits="userSpaceOnUse" x="247" y="325" width="12" height="15">
<path d="M254.713 333.826L247.007 339.296C249.541 337.497 251.079 334.385 250.811 330.852L258.517 325.382C258.784 328.915 257.246 332.027 254.713 333.826Z" fill="white"/>
</mask>
<g mask="url(#mask44_205_29)">
<path d="M254.713 333.826L247.007 339.296C249.541 337.497 251.079 334.385 250.811 330.852L258.517 325.382C258.784 328.915 257.246 332.027 254.713 333.826Z" fill="black"/>
</g>
<path d="M235.587 311.817L227.89 317.279L226.854 303.527L234.559 298.057L235.587 311.817Z" fill="black"/>
<path d="M247.736 311.817L240.03 317.279H227.89L235.587 311.817H247.736Z" fill="black"/>
<path d="M224.037 287.984L216.34 293.454H210.569L218.266 287.984H224.037Z" fill="black"/>
<mask id="mask45_205_29" style="mask-type:luminance" maskUnits="userSpaceOnUse" x="241" y="333" width="14" height="8">
<path d="M254.713 333.826L247.007 339.296C245.55 340.333 243.77 340.933 241.803 340.933L249.508 335.463C251.475 335.463 253.256 334.863 254.713 333.826Z" fill="white"/>
</mask>
<g mask="url(#mask45_205_29)">
<path d="M254.713 333.826L247.007 339.296C245.55 340.333 243.77 340.933 241.803 340.933L249.508 335.463C251.475 335.463 253.256 334.863 254.713 333.826Z" fill="#9D8528"/>
</g>
<mask id="mask46_205_29" style="mask-type:luminance" maskUnits="userSpaceOnUse" x="241" y="335" width="15" height="8">
<path d="M255.643 335.147L247.938 340.617C246.255 341.808 244.191 342.505 241.916 342.505L249.622 337.035C251.888 337.035 253.96 336.338 255.643 335.147Z" fill="white"/>
</mask>
<g mask="url(#mask46_205_29)">
<path d="M255.643 335.147L247.938 340.617C246.255 341.808 244.191 342.505 241.916 342.505L249.622 337.035C251.888 337.035 253.96 336.338 255.643 335.147Z" fill="black"/>
</g>
<mask id="mask47_205_29" style="mask-type:luminance" maskUnits="userSpaceOnUse" x="205" y="287" width="14" height="9">
<path d="M205.365 295.091L213.07 289.621C214.527 288.592 216.307 287.984 218.274 287.984L210.569 293.454C208.602 293.454 206.821 294.054 205.365 295.091Z" fill="white"/>
</mask>
<g mask="url(#mask47_205_29)">
<path d="M218.266 287.984L210.561 293.454C208.594 293.454 206.813 294.054 205.356 295.091L213.062 289.621C214.519 288.592 216.299 287.984 218.266 287.984Z" fill="black"/>
</g>
<path d="M249.508 335.463L241.803 340.933H229.662L237.368 335.463H249.508Z" fill="#998227"/>
<path d="M249.63 337.043L241.924 342.513H231.313L239.019 337.043H249.63Z" fill="black"/>
<mask id="mask48_205_29" style="mask-type:luminance" maskUnits="userSpaceOnUse" x="201" y="289" width="13" height="15">
<path d="M205.365 295.091L213.07 289.621C210.537 291.42 209.007 294.532 209.266 298.057L201.56 303.527C201.293 300.002 202.831 296.89 205.365 295.091Z" fill="white"/>
</mask>
<g mask="url(#mask48_205_29)">
<path d="M209.266 298.057L201.56 303.527C201.293 300.002 202.831 296.89 205.365 295.091L213.07 289.621C210.537 291.42 209.007 294.532 209.266 298.057Z" fill="#9D8528"/>
</g>
<mask id="mask49_205_29" style="mask-type:luminance" maskUnits="userSpaceOnUse" x="199" y="288" width="14" height="16">
<path d="M204.426 293.77L212.131 288.3C209.201 290.383 207.429 293.973 207.728 298.057L200.023 303.527C199.715 299.451 201.488 295.853 204.426 293.77Z" fill="white"/>
</mask>
<g mask="url(#mask49_205_29)">
<path d="M207.728 298.057L200.023 303.527C199.715 299.451 201.488 295.853 204.426 293.77L212.131 288.3C209.201 290.383 207.429 293.973 207.728 298.057Z" fill="black"/>
</g>
<path d="M238.396 349.215L230.698 354.685L229.662 340.933L237.368 335.463L238.396 349.215Z" fill="black"/>
<path d="M210.302 311.817L202.597 317.279L201.561 303.527L209.266 298.057L210.302 311.817Z" fill="#998227"/>
<path d="M208.643 310.237L200.945 315.707L200.031 303.527L207.728 298.057L208.643 310.237Z" fill="black"/>
<mask id="mask50_205_29" style="mask-type:luminance" maskUnits="userSpaceOnUse" x="226" y="349" width="13" height="15">
<path d="M234.599 357.651L226.894 363.121C229.427 361.322 230.957 358.218 230.69 354.685L238.395 349.215C238.662 352.748 237.133 355.852 234.599 357.651Z" fill="white"/>
</mask>
<g mask="url(#mask50_205_29)">
<path d="M234.599 357.651L226.894 363.121C229.427 361.322 230.957 358.218 230.69 354.685L238.395 349.215C238.662 352.748 237.133 355.852 234.599 357.651Z" fill="black"/>
</g>
<path d="M210.302 311.817L202.597 317.279H190.456L198.153 311.817H210.302Z" fill="black"/>
<mask id="mask51_205_29" style="mask-type:luminance" maskUnits="userSpaceOnUse" x="221" y="357" width="14" height="8">
<path d="M234.6 357.65L226.894 363.12C225.437 364.149 223.657 364.757 221.69 364.757L229.395 359.287C231.362 359.287 233.143 358.688 234.6 357.65Z" fill="white"/>
</mask>
<g mask="url(#mask51_205_29)">
<path d="M234.6 357.65L226.894 363.12C225.437 364.149 223.657 364.757 221.69 364.757L229.395 359.287C231.362 359.287 233.143 358.688 234.6 357.65Z" fill="#9D8528"/>
</g>
<mask id="mask52_205_29" style="mask-type:luminance" maskUnits="userSpaceOnUse" x="221" y="358" width="15" height="9">
<path d="M235.53 358.979L227.825 364.449C226.142 365.641 224.078 366.338 221.803 366.338L229.509 360.868C231.775 360.868 233.847 360.171 235.53 358.979Z" fill="white"/>
</mask>
<g mask="url(#mask52_205_29)">
<path d="M235.53 358.979L227.825 364.449C226.142 365.641 224.078 366.338 221.803 366.338L229.509 360.868C231.775 360.868 233.847 360.171 235.53 358.979Z" fill="black"/>
</g>
<mask id="mask53_205_29" style="mask-type:luminance" maskUnits="userSpaceOnUse" x="185" y="311" width="14" height="8">
<path d="M185.243 318.915L192.949 313.446C194.406 312.408 196.194 311.809 198.153 311.809L190.448 317.278C188.481 317.278 186.7 317.878 185.243 318.915Z" fill="white"/>
</mask>
<g mask="url(#mask53_205_29)">
<path d="M198.153 311.817L190.448 317.287C188.481 317.287 186.7 317.886 185.243 318.924L192.949 313.454C194.406 312.417 196.194 311.817 198.153 311.817Z" fill="black"/>
</g>
<path d="M229.395 359.279L221.69 364.749H215.919L223.624 359.279H229.395Z" fill="#998227"/>
<path d="M229.517 360.868L221.811 366.338H216.04L223.737 360.868H229.517Z" fill="black"/>
<path d="M213.102 349.215L205.405 354.685L204.369 340.933L212.074 335.463L213.102 349.215Z" fill="#998227"/>
<path d="M211.573 349.215L203.867 354.684L202.953 342.513L210.658 337.043L211.573 349.215Z" fill="black"/>
<mask id="mask54_205_29" style="mask-type:luminance" maskUnits="userSpaceOnUse" x="208" y="356" width="16" height="9">
<path d="M215.919 364.749C213.224 364.749 210.698 363.623 208.796 361.799C211.362 359.976 213.928 358.153 216.502 356.33C218.404 358.153 220.929 359.279 223.624 359.279C221.309 360.916 218.622 363.89 215.919 364.749Z" fill="white"/>
</mask>
<g mask="url(#mask54_205_29)">
<path d="M223.624 359.279L215.919 364.749C210.537 364.749 205.818 360.235 205.405 354.676L213.11 349.207C213.531 354.766 218.242 359.279 223.624 359.279Z" fill="#9D8528"/>
</g>
<mask id="mask55_205_29" style="mask-type:luminance" maskUnits="userSpaceOnUse" x="208" y="355" width="9" height="7">
<path d="M208.343 361.338C210.909 359.514 213.474 357.691 216.048 355.868C216.194 356.03 216.348 356.176 216.502 356.33C213.936 358.153 211.37 359.976 208.796 361.799C208.642 361.654 208.489 361.5 208.343 361.338Z" fill="white"/>
</mask>
<g mask="url(#mask55_205_29)">
<path d="M223.624 359.279L215.919 364.749C210.537 364.749 205.818 360.235 205.405 354.676L213.11 349.207C213.531 354.766 218.242 359.279 223.624 359.279Z" fill="#9D8528"/>
</g>
<mask id="mask56_205_29" style="mask-type:luminance" maskUnits="userSpaceOnUse" x="206" y="353" width="11" height="9">
<path d="M208.343 361.338C207.59 360.527 206.951 359.604 206.465 358.599C209.031 356.776 211.597 354.952 214.171 353.129C214.656 354.134 215.296 355.058 216.048 355.868C213.483 357.691 210.917 359.515 208.343 361.338Z" fill="white"/>
</mask>
<g mask="url(#mask56_205_29)">
<path d="M223.624 359.28L215.919 364.75C210.537 364.75 205.818 360.236 205.405 354.677L213.11 349.207C213.531 354.766 218.242 359.28 223.624 359.28Z" fill="#9D8528"/>
</g>
<path d="M212.074 335.463L204.369 340.933H192.228L199.934 335.463H212.074Z" fill="#998227"/>
<path d="M210.658 337.043L202.953 342.513H192.35L200.047 337.043H210.658Z" fill="black"/>
<mask id="mask57_205_29" style="mask-type:luminance" maskUnits="userSpaceOnUse" x="181" y="313" width="12" height="15">
<path d="M185.243 318.916L192.949 313.446C190.415 315.245 188.877 318.357 189.144 321.882L181.439 327.352C181.172 323.826 182.71 320.715 185.243 318.916Z" fill="white"/>
</mask>
<g mask="url(#mask57_205_29)">
<path d="M189.144 321.882L181.439 327.352C181.172 323.826 182.71 320.715 185.243 318.916L192.949 313.446C190.415 315.245 188.877 318.357 189.144 321.882Z" fill="#9D8528"/>
</g>
<mask id="mask58_205_29" style="mask-type:luminance" maskUnits="userSpaceOnUse" x="203" y="349" width="21" height="18">
<path d="M223.738 360.868L216.032 366.338C209.808 366.338 204.345 361.111 203.859 354.685L211.564 349.215C212.05 355.641 217.505 360.868 223.738 360.868Z" fill="white"/>
</mask>
<g mask="url(#mask58_205_29)">
<path d="M223.738 360.868L216.032 366.338C209.808 366.338 204.345 361.111 203.859 354.685L211.564 349.215C212.05 355.641 217.505 360.868 223.738 360.868Z" fill="black"/>
</g>
<mask id="mask59_205_29" style="mask-type:luminance" maskUnits="userSpaceOnUse" x="179" y="312" width="14" height="16">
<path d="M184.313 317.594L192.018 312.125C189.088 314.207 187.315 317.797 187.615 321.881L179.909 327.351C179.602 323.275 181.374 319.677 184.313 317.594Z" fill="white"/>
</mask>
<g mask="url(#mask59_205_29)">
<path d="M187.615 321.881L179.909 327.351C179.602 323.275 181.374 319.677 184.313 317.594L192.018 312.125C189.088 314.207 187.315 317.797 187.615 321.881Z" fill="black"/>
</g>
<path d="M189.412 325.382L181.706 330.852L181.439 327.351L189.145 321.881L189.412 325.382Z" fill="#998227"/>
<path d="M187.882 325.382L180.177 330.852L179.909 327.351L187.615 321.881L187.882 325.382Z" fill="black"/>
<mask id="mask60_205_29" style="mask-type:luminance" maskUnits="userSpaceOnUse" x="181" y="325" width="19" height="16">
<path d="M199.934 335.463L192.228 340.933C186.846 340.933 182.119 336.411 181.706 330.86L189.412 325.39C189.833 330.949 194.551 335.463 199.934 335.463Z" fill="white"/>
</mask>
<g mask="url(#mask60_205_29)">
<path d="M199.934 335.463L192.228 340.933C186.846 340.933 182.119 336.411 181.706 330.86L189.412 325.39C189.833 330.949 194.551 335.463 199.934 335.463Z" fill="#9D8528"/>
</g>
<path d="M247.614 310.237C253.839 310.237 259.302 315.463 259.788 321.881L260.047 325.382C260.532 331.808 255.854 337.035 249.63 337.035H239.027L239.941 349.207C240.427 355.633 235.749 360.86 229.525 360.86H223.754C217.53 360.86 212.066 355.633 211.581 349.207L210.666 337.035H200.063C193.839 337.035 188.376 331.808 187.89 325.382L187.631 321.881C187.145 315.455 191.824 310.237 198.056 310.237H208.659L207.744 298.057C207.259 291.631 211.937 286.412 218.169 286.412H223.94C230.164 286.412 235.627 291.639 236.113 298.057L237.028 310.237H247.631H247.614ZM258.517 325.382L258.258 321.881C257.845 316.33 253.118 311.809 247.736 311.809H235.595L234.559 298.049C234.146 292.498 229.428 287.976 224.045 287.976H218.274C212.892 287.976 208.853 292.498 209.274 298.049L210.31 311.809H198.169C192.787 311.809 188.74 316.33 189.161 321.881L189.42 325.382C189.841 330.941 194.559 335.455 199.942 335.455H212.083L213.119 349.207C213.539 354.766 218.25 359.279 223.632 359.279H229.403C234.786 359.279 238.825 354.766 238.404 349.207L237.368 335.455H249.508C254.891 335.455 258.938 330.933 258.517 325.382Z" fill="black"/>
<path d="M224.045 287.984C229.428 287.984 234.146 292.506 234.559 298.057L235.595 311.817H247.736C253.118 311.817 257.845 316.339 258.258 321.89L258.517 325.39C258.938 330.949 254.891 335.463 249.508 335.463H237.368L238.404 349.215C238.825 354.774 234.786 359.288 229.403 359.288H223.632C218.25 359.288 213.531 354.774 213.119 349.215L212.083 335.463H199.942C194.559 335.463 189.833 330.941 189.42 325.39L189.161 321.89C188.748 316.339 192.787 311.817 198.169 311.817H210.31L209.274 298.057C208.861 292.506 212.892 287.984 218.274 287.984H224.045Z" fill="#F8CD3C"/>
<mask id="mask61_205_29" style="mask-type:luminance" maskUnits="userSpaceOnUse" x="180" y="325" width="21" height="18">
<path d="M200.047 337.043L192.342 342.513C186.117 342.513 180.654 337.286 180.168 330.86L187.874 325.39C188.359 331.816 193.815 337.043 200.047 337.043Z" fill="white"/>
</mask>
<g mask="url(#mask61_205_29)">
<path d="M200.047 337.043L192.342 342.513C186.117 342.513 180.654 337.286 180.168 330.86L187.874 325.39C188.359 331.816 193.815 337.043 200.047 337.043Z" fill="black"/>
</g>
<path d="M316.274 160.354L316.169 160.556H311.426L311.515 160.386L316.274 160.354Z" fill="#666666"/>
<path d="M316.169 160.556L267.015 261.154H257.003L311.426 160.556H316.169Z" fill="#8DA8A0"/>
<path d="M304.733 160.556L252.285 261.154H213.952L270.245 160.556H304.733Z" fill="#8DA8A0"/>
<path d="M304.903 160.224L304.733 160.556H270.245L304.903 160.224Z" fill="#666666"/>
<path d="M320.678 158.984C333.102 158.984 343.996 169.413 344.959 182.233L349.257 239.485C349.726 245.692 347.816 251.527 343.891 255.919C339.965 260.311 334.486 262.734 328.464 262.734H210.828C198.404 262.734 187.518 252.304 186.555 239.485L182.249 182.233C181.779 176.026 183.689 170.183 187.623 165.791C191.557 161.399 197.02 158.984 203.042 158.984H320.678ZM347.727 239.485L343.429 182.233C342.531 170.264 332.397 160.556 320.799 160.556H316.177L311.523 160.386L304.741 160.556H270.253H203.171C191.573 160.556 182.896 170.264 183.795 182.233L188.093 239.485C188.991 251.454 199.124 261.154 210.723 261.154H328.359C339.957 261.154 348.634 251.454 347.735 239.485" fill="black"/>
<path d="M320.791 160.556C332.389 160.556 342.523 170.264 343.421 182.233L347.719 239.485C348.617 251.454 339.941 261.154 328.342 261.154H210.707C199.108 261.154 188.975 251.454 188.076 239.485L183.779 182.233C182.88 170.264 191.557 160.556 203.155 160.556H270.237L213.944 261.154H252.277L304.725 160.556H311.418L256.995 261.154H267.007L316.161 160.556H320.783H320.791Z" fill="#3A7B6E"/>
<path d="M231.079 312.481C232.22 312.481 233.224 313.438 233.313 314.621L234.592 331.663C234.681 332.846 233.823 333.802 232.681 333.802H216.162C215.021 333.802 214.017 332.846 213.928 331.663L212.649 314.621C212.56 313.438 213.418 312.481 214.559 312.481H231.079ZM233.062 331.663L231.783 314.621C231.759 314.313 231.5 314.07 231.2 314.07H214.681C214.381 314.07 214.163 314.321 214.187 314.621L215.466 331.663C215.49 331.979 215.749 332.222 216.049 332.222H232.568C232.868 332.222 233.094 331.971 233.07 331.663" fill="black"/>
<path d="M231.2 314.07C231.5 314.07 231.767 314.321 231.783 314.621L233.062 331.663C233.086 331.979 232.859 332.222 232.56 332.222H216.04C215.741 332.222 215.482 331.971 215.458 331.663L214.179 314.621C214.155 314.313 214.381 314.07 214.673 314.07H231.192H231.2Z" fill="#E12D71"/>
<path d="M309.581 320.617C316.21 320.617 322.021 326.184 322.531 333.016C323.041 339.847 318.079 345.414 311.442 345.414C304.805 345.414 299.002 339.847 298.492 333.016C297.982 326.184 302.952 320.617 309.581 320.617Z" fill="#E12D71"/>
<path d="M309.459 319.037C316.93 319.037 323.486 325.309 324.061 333.016C324.635 340.722 319.026 346.994 311.556 346.994C304.085 346.994 297.537 340.73 296.954 333.016C296.372 325.301 301.989 319.037 309.451 319.037H309.459ZM311.442 345.414C318.071 345.414 323.041 339.847 322.531 333.016C322.021 326.184 316.218 320.617 309.581 320.617C302.944 320.617 297.982 326.184 298.492 333.016C299.002 339.855 304.813 345.414 311.442 345.414Z" fill="black"/>
<path d="M336.21 300.367C342.838 300.367 348.642 305.926 349.16 312.757C349.678 319.588 344.7 325.155 338.071 325.155C331.442 325.155 325.639 319.596 325.121 312.757C324.603 305.918 329.581 300.367 336.21 300.367Z" fill="#E12D71"/>
<path d="M336.088 298.778C343.559 298.778 350.107 305.05 350.689 312.757C351.272 320.463 345.663 326.744 338.193 326.744C330.722 326.744 324.174 320.472 323.591 312.757C323.017 305.05 328.618 298.778 336.088 298.778ZM338.063 325.155C344.692 325.155 349.662 319.596 349.152 312.757C348.642 305.918 342.83 300.367 336.202 300.367C329.573 300.367 324.603 305.926 325.113 312.757C325.623 319.588 331.434 325.155 338.063 325.155Z" fill="black"/>
<path d="M251.152 423.654L250.828 423.93L202.815 425.056L203.139 424.773L251.152 423.654Z" fill="#28584E"/>
<path d="M203.139 424.772L202.815 425.056L202.572 420.794L202.896 420.518L203.139 424.772Z" fill="#28584E"/>
<path d="M250.9 419.392L251.151 423.654L203.139 424.772L202.896 420.518L250.9 419.392Z" fill="#39796C"/>
<path d="M251.152 406.507L250.828 406.783L202.815 407.909L203.139 407.634L251.152 406.507Z" fill="#28584E"/>
<path d="M203.139 407.634L202.815 407.909L202.572 403.647L202.896 403.371L203.139 407.634Z" fill="#28584E"/>
<path d="M250.9 402.245L251.151 406.507L203.139 407.633L202.896 403.371L250.9 402.245Z" fill="#39796C"/>
<path d="M251.152 389.36L250.828 389.636L202.815 390.762L203.139 390.487L251.152 389.36Z" fill="#28584E"/>
<path d="M203.139 390.487L202.815 390.762L202.572 386.5L202.896 386.224L203.139 390.487Z" fill="#28584E"/>
<path d="M250.9 385.098L251.151 389.36L203.139 390.487L202.896 386.224L250.9 385.098Z" fill="#39796C"/>
<path d="M295.02 230.757C297.594 226.511 296.614 217.119 293.28 213.586C290.245 210.369 286.254 213.075 281.43 214.793C262.361 221.584 249.104 206.309 244.822 214.939C242.726 219.161 243.713 227.248 246.514 231.6C252.042 240.19 260.969 228.577 282.475 232.029C288.237 232.953 292.697 234.606 295.02 230.757Z" fill="white" stroke="#1D1D1B" stroke-width="2" stroke-miterlimit="10"/>
<path d="M251.807 198.805C250.326 202.524 246.109 204.477 242.337 202.557C237.764 200.239 235.369 193.027 235.7 187.346C233.693 188.383 230.852 189.68 227.412 190.815C227.372 191.884 227.372 192.978 227.429 194.113C227.696 199.291 231.378 203.691 236.388 204.98C249.33 208.302 258.371 204.42 259.545 197.751C260.524 192.192 256.348 182.905 250.609 177.014C249.274 178.303 247.865 179.486 246.481 180.547C250.536 184.931 253.887 193.57 251.807 198.805Z" fill="white" stroke="#1D1D1B" stroke-width="2" stroke-miterlimit="10"/>
<path d="M242.337 202.565C246.109 204.477 250.326 202.533 251.807 198.813C253.887 193.578 250.536 184.94 246.481 180.556C243.155 183.1 239.99 184.948 238.525 185.807C237.975 186.131 237.012 186.69 235.7 187.363C235.368 193.043 237.764 200.255 242.337 202.573V202.565Z" fill="black"/>
<path d="M296.404 198.254C294.923 201.973 290.706 203.926 286.934 202.006C281.868 199.437 279.456 190.847 280.492 185.005C280.969 182.29 282.369 179.227 284.344 177.914C283.09 176.885 281.9 175.831 280.807 174.778C276.906 178.627 274.308 185.734 274.842 194.518C275.142 199.477 278.638 203.667 283.438 204.939C296.566 208.416 305.761 204.534 306.942 197.8C307.379 195.32 306.78 192.087 305.485 188.756C301.876 188.141 298.023 186.633 294.267 184.607C296.607 189.032 297.893 194.51 296.404 198.254Z" fill="white" stroke="#1D1D1B" stroke-width="2" stroke-miterlimit="10"/>
<path d="M280.492 185.004C279.456 190.847 281.868 199.437 286.934 202.005C290.706 203.918 294.923 201.973 296.404 198.254C297.893 194.518 296.606 189.032 294.267 184.607C290.763 182.719 287.355 180.385 284.344 177.914C282.369 179.226 280.969 182.289 280.492 185.004Z" fill="black"/>
<path d="M240.346 171.585C233.774 171.585 227.849 179.397 227.404 190.815C230.852 189.688 233.685 188.383 235.692 187.346C236.995 186.674 237.959 186.114 238.517 185.79C239.99 184.931 243.155 183.084 246.473 180.539C247.857 179.478 249.274 178.295 250.601 177.006C247.453 173.781 243.835 171.569 240.338 171.577L240.346 171.585Z" fill="#1EB5BB" stroke="#1D1D1B" stroke-width="2" stroke-miterlimit="10"/>
<path d="M287.736 171.641C285.243 171.641 282.847 172.768 280.799 174.777C281.9 175.831 283.082 176.884 284.336 177.914C287.347 180.385 290.755 182.719 294.259 184.607C298.007 186.633 301.868 188.14 305.477 188.756C302.272 180.523 294.761 171.633 287.736 171.633V171.641Z" fill="#1EB5BB" stroke="#1D1D1B" stroke-width="2" stroke-miterlimit="10"/>
</svg>
